<?xml version="1.0" encoding="utf-8"?>
<!-- Generator: Adobe Illustrator 24.2.1, SVG Export Plug-In . SVG Version: 6.00 Build 0)  -->
<svg version="1.1" xmlns="http://www.w3.org/2000/svg" xmlns:xlink="http://www.w3.org/1999/xlink" x="0px" y="0px"
	 viewBox="0 0 500 500" style="enable-background:new 0 0 500 500;" xml:space="preserve">
<g id="Floor">
	<ellipse id="Floor_7_" style="fill:#F5F5F5;" cx="250" cy="350" rx="219.33" ry="127.74"/>
</g>
<g id="Shadows">
	<ellipse id="Shadow" style="fill:#E6E6E6;" cx="373.67" cy="367.84" rx="63.72" ry="36.79"/>
	<ellipse id="Shadow_11_" style="fill:#E6E6E6;" cx="250" cy="375.2" rx="71.96" ry="41.54"/>
	<ellipse id="Shadow_10_" style="fill:#E6E6E6;" cx="124.17" cy="367.84" rx="63.72" ry="36.79"/>
</g>
<g id="Plants">
	<g id="Plants_2_">
		<g id="XMLID_152_">
			<g id="XMLID_155_">
				<path id="XMLID_157_" style="fill:#27DEBF;" d="M98.8,319.26c0.77-8.78-3.98-27.53-12.1-39.74s-21.71-21.8-32.2-19.21
					c-9.77,2.41-9.83,14.94,0.95,24.19c10.78,9.25,27.16,21.12,30.97,35.82l9.08,18.41L98.8,319.26z"/>
				<path id="XMLID_156_" style="opacity:0.1;" d="M98.8,319.26c0.77-8.78-3.98-27.53-12.1-39.74s-21.71-21.8-32.2-19.21
					c-9.77,2.41-9.83,14.94,0.95,24.19c10.78,9.25,27.16,21.12,30.97,35.82l9.08,18.41L98.8,319.26z"/>
			</g>
			<g id="XMLID_153_">
				<path id="XMLID_154_" style="fill:#FFFFFF;" d="M98.39,331.34c-0.28-0.05-0.5-0.27-0.53-0.57c-3.25-30.5-25.36-57-39.41-63.66
					c-0.32-0.15-0.46-0.54-0.31-0.86c0.15-0.32,0.53-0.47,0.86-0.31c14.31,6.79,36.84,33.73,40.14,64.69
					c0.04,0.35-0.22,0.67-0.57,0.71C98.51,331.35,98.45,331.35,98.39,331.34z"/>
			</g>
		</g>
		<g id="XMLID_147_">
			<g id="XMLID_150_">
				<path id="XMLID_151_" style="fill:#27DEBF;" d="M92.24,350.14c-0.98-5.06-6.29-13.74-15.46-21.33
					c-10.14-8.39-23.49-13.02-26.13-19.09c-3.17-7.29,3.28-13.36,14.24-11.01c10.96,2.35,29.12,19.18,30.24,42.22L92.24,350.14z"/>
			</g>
			<g id="XMLID_148_">
				<path id="XMLID_149_" style="fill:#FFFFFF;" d="M94.84,345.15c-0.24-0.04-0.45-0.22-0.52-0.47
					c-6.94-26.49-25.74-37.23-34.72-39.21c-0.35-0.08-0.57-0.42-0.49-0.77c0.08-0.35,0.41-0.57,0.77-0.49
					c9.92,2.18,28.61,13.1,35.69,40.14c0.09,0.34-0.12,0.7-0.46,0.79C95.01,345.16,94.92,345.16,94.84,345.15z"/>
			</g>
		</g>
	</g>
	<g id="Plants_1_">
		<g id="XMLID_141_">
			<g id="XMLID_144_">
				<path id="XMLID_146_" style="fill:#27DEBF;" d="M391.8,331.06c-0.81-9.23,4.49-38.92,13.02-51.75
					c8.52-12.82,23.93-25.76,34.95-23.05c10.26,2.53,10.33,15.7-1,25.42c-11.33,9.72-28.54,22.2-32.54,37.63l-9.98,26.1
					L391.8,331.06z"/>
				<path id="XMLID_145_" style="opacity:0.1;" d="M391.8,331.06c-0.81-9.23,4.49-38.92,13.02-51.75
					c8.52-12.82,23.93-25.76,34.95-23.05c10.26,2.53,10.33,15.7-1,25.42c-11.33,9.72-28.54,22.2-32.54,37.63l-9.98,26.1
					L391.8,331.06z"/>
			</g>
			<g id="XMLID_142_">
				<path id="XMLID_143_" style="fill:#FFFFFF;" d="M393.66,330.9c0.29-0.05,0.53-0.29,0.56-0.6c3.41-32.05,26.65-59.89,41.41-66.89
					c0.34-0.16,0.48-0.56,0.32-0.9c-0.16-0.34-0.56-0.49-0.9-0.32c-15.04,7.13-38.71,35.44-42.17,67.97
					c-0.04,0.37,0.23,0.7,0.6,0.74C393.54,330.91,393.6,330.91,393.66,330.9z"/>
			</g>
		</g>
		<g id="XMLID_136_">
			<g id="XMLID_139_">
				<path id="XMLID_140_" style="fill:#27DEBF;" d="M400.13,350.65c1.03-5.32,5.31-14.35,14.31-23.02
					c11.03-10.61,28.64-15.79,31.41-22.17c3.33-7.66-2.94-13.38-14.35-10.46c-15.35,3.93-33.23,21.78-34.41,45.99L400.13,350.65z"/>
			</g>
			<g id="XMLID_137_">
				<path id="XMLID_138_" style="fill:#FFFFFF;" d="M397.39,345.4c0.25-0.04,0.47-0.23,0.54-0.5c7.29-27.84,30.9-41.7,40.32-43.78
					c0.36-0.08,0.6-0.44,0.52-0.81c-0.08-0.37-0.43-0.6-0.81-0.52c-10.43,2.3-33.9,16.35-41.34,44.76
					c-0.09,0.36,0.12,0.73,0.48,0.83C397.21,345.42,397.3,345.42,397.39,345.4z"/>
			</g>
		</g>
	</g>
</g>
<g id="Character_3">
	<g id="Character_21_">
		<g>
			<path style="fill:#FFBDA7;" d="M404.1,151.05c-6.18-6.36-16.43-21.19-16.43-21.19l-6.32-21.89c-0.15,0.06,3.22,0.07,4.24,0.01
				c6.83,0.46,8.84,1.04,13.09,5.69c3.37,3.69,15.85,23.08,20.32,28.99l12.26-16.94c2.84-4.31,2.38-9.12,3.86-12.63
				c1.48-3.51,3.86-5.06,5.77-8.24c1.91-3.18,2.37-5.24,3.94-3.63c1.57,1.62-0.24,6-0.48,7c-0.24,1-2.63,3.96,1.37,2.42
				c3.99-1.54,10.17-8.86,11.77-10.35c1.6-1.49,2.43,0.82,2.07,2.65c-0.36,1.82,1.36,5.96,0.74,8.98c-0.66,3.21-1.13,4.68-4.23,7.79
				c-2.88,2.9-9.94,6.46-12.7,10.27c-2.76,3.81-8.65,15.65-12.25,22.79c-4.57,9.07-9.6,14.23-15.52,9.16
				C411.07,158.05,406.39,153.41,404.1,151.05z"/>
			<path style="fill:#F0F0F0;" d="M388.32,107.83c5.22,0.48,8.04,1.67,13.22,8.51c5.18,6.83,17.34,24.85,17.34,24.85l10.46-12.81
				c0,0,7.21,5.49,11.04,11.91c0,0-10.13,17.03-14.19,21.29c-4.05,4.27-7.21,4.63-12.72,0c-5.52-4.63-21.51-22.2-21.51-22.2
				L388.32,107.83z"/>
			<path style="fill:#E0E0E0;" d="M418.88,141.19c-2.37,3.44-3.91,9.02-3.49,11.81c0,0-3.3-3.8,2.26-13.63L418.88,141.19z"/>
		</g>
		<g id="XMLID_3571_">
			<polygon id="XMLID_3578_" style="fill:#FFBDA7;" points="342.18,362.9 354.07,362.9 356.44,341.85 342.18,341.85 			"/>
			<polygon id="XMLID_3577_" style="fill:#FFBDA7;" points="381.46,341.25 394.13,341.67 393.9,319.88 379.57,319.6 			"/>
			<path id="XMLID_3575_" style="fill:#37474F;" d="M342.31,193.7c-0.23,11.54-2.68,87.92-2.68,87.92c-0.25,2.92-1.3,8.3-1.52,18.82
				c-0.32,15.26,2.88,51.48,2.88,51.48c0.71,3.29,13.01,4.63,14.64,1.66c0,0,6.72-52.54,8.62-67.64
				c1.66-13.18,7.15-56.27,7.15-56.27l4.25,42.31c0,0-0.31,5.8,0.33,14.83c0.5,6.99,4,48.2,4,48.2c0.06,2.57,12.84,4.69,15,0.9
				c0,0,4.04-60.16,4.17-66.57c0.14-7.31-0.88-76.45-0.88-76.45L342.31,193.7z"/>
			<path id="XMLID_3574_" style="fill:#263238;" d="M354.75,356.85c0,0,0.2-1.8,0.2-1.8c0.66-0.01,0.94,0.74,1.21,2.32
				c0.72,4.22,1.97,7.25,3.15,9.69c2.02,4.16,3.2,5.88,7.18,10.89c0.94,1.19,3.08,3.07,3.82,4.4c0.74,1.32,1,5-0.26,5.85
				c-4.64,3.09-11.69,3.18-16.68,1.72c-3.84-1.12-6.43-3.59-7.24-8.14c-0.81-4.54-1.23-7.35-3.55-10.78
				c-0.85-1.26-2.22-2.27-2.8-3.68c-1.03-2.53-0.2-5.37,0.46-7.89c0.57-2.17,1.19-4.56,1.93-4.36c0,0.26,0,1.34,0,1.34
				c0.89,0.99,4.02,1.97,6.8,2.08C350.78,358.56,354.77,358.23,354.75,356.85z"/>
			<path id="XMLID_3573_" style="fill:#263238;" d="M394.09,338.23c0.31,0.21,1.03,1.04,2.31,2.22c1.12,1.04,2.22,1.79,4.1,3.17
				c2.97,2.19,5.63,3.81,9.12,5.73c3.77,2.07,7.17,3.33,11.67,5.36c0.46,0.21,0.92,0.46,1.26,0.83c0.28,0.31,0.45,0.71,0.55,1.12
				c0.39,1.67-0.54,3.44-1.89,4.5c-1.35,1.07-3.04,1.57-4.71,2c-3.78,0.98-7.96,1.3-11.75,0.35c-3.34-0.84-6.53-2.52-9.44-4.36
				c-2.48-1.57-5.13-3.03-8.07-3.46c-2.53-0.37-5.64-0.25-7.84-1.76c-2.44-1.68-1.46-5.27-0.77-8.35c0.75-3.37,0.92-8.5,2.45-8.39
				l0.12,1.35c0.14,1.45,3.65,2.12,6.38,2.12c2.26,0,6.53-0.59,6.51-1.65C394.11,339.02,394.09,338.24,394.09,338.23z"/>
			<path id="XMLID_3572_" style="fill:#263238;" d="M372.71,213.49c0,0,6.67-2.24,12.98-8.34c0,0-2.07,6.05-10.56,11.03l0.56,52.7
				l-4.28-39.22L372.71,213.49z"/>
		</g>
		<g id="XMLID_3198_">
			<path id="XMLID_3568_" style="fill:#27DEBF;" d="M361.47,106.54c-2.15,0.52-9,2.36-14.56,4.32c-3.76,1.33-6.29,4.31-7.01,5.37
				c-4.03,5.89-0.4,18.98,2.57,43.64c-0.23,15.92-0.68,35.72-0.68,35.72c7.32,5.33,41.47,8.96,56.88-2.29c0,0,0.51-59.76-0.51-67.53
				c-1.95-14.87-7.77-18.85-19.79-19.55L361.47,106.54z"/>
			<path id="XMLID_3594_" style="opacity:0.6;fill:#FFFFFF;" d="M361.47,106.54c-2.15,0.52-9,2.36-14.56,4.32
				c-3.76,1.33-6.29,4.31-7.01,5.37c-4.03,5.89-0.4,18.98,2.57,43.64c-0.23,15.92-0.68,35.72-0.68,35.72
				c7.32,5.33,41.47,8.96,56.88-2.29c0,0,0.51-59.76-0.51-67.53c-1.95-14.87-7.77-18.85-19.79-19.55L361.47,106.54z"/>
		</g>
		<g>
			<path style="fill:#27DEBF;" d="M382.46,123.99c1.08,3.72,7.47,29.86,6.57,39.06c-0.37,3.82-2.21,9.98-3.8,13.74
				c-2.77,6.55-4.62,0.69-6.16-3.18c-1.12-2.79-2.23-7.64-2.6-11.17c-0.51-4.94,1.47-19.95,0.71-37.54
				C377.18,124.89,379.06,122.04,382.46,123.99z"/>
			<path style="opacity:0.2;" d="M382.46,123.99c1.08,3.72,7.47,29.86,6.57,39.06c-0.37,3.82-2.21,9.98-3.8,13.74
				c-2.77,6.55-4.62,0.69-6.16-3.18c-1.12-2.79-2.23-7.64-2.6-11.17c-0.51-4.94,1.47-19.95,0.71-37.54
				C377.18,124.89,379.06,122.04,382.46,123.99z"/>
			<path style="fill:#27DEBF;" d="M382.7,115.6c2.53,2.16-0.24,8.39-0.24,8.39s-2.5-0.73-5.28,0.9c0,0-5.05-2.16-5.06-5.89
				c-0.01-3.4,3.61-2.31,6.18-2.76C381.04,115.77,382.4,113.78,382.7,115.6z"/>
			<path style="opacity:0.2;" d="M382.7,115.6c2.53,2.16-0.24,8.39-0.24,8.39s-2.5-0.73-5.28,0.9c0,0-5.05-2.16-5.06-5.89
				c-0.01-3.4,3.61-2.31,6.18-2.76C381.04,115.77,382.4,113.78,382.7,115.6z"/>
			<path style="opacity:0.2;" d="M382.46,123.99c-0.41-1.46-2.4-1.32-3.98-1.82c-1.04-0.33-1.84-1.33-2.14-1.84
				c-0.82-1.41-0.01-3.75,1.15-3.99l0,0c-2.45,0.17-5.36-0.38-5.35,2.66c0.01,3.73,5.06,5.89,5.06,5.89
				C379.96,123.26,382.46,123.99,382.46,123.99z"/>
		</g>
		<g id="XMLID_1223_">
			<g id="XMLID_2997_">
				<path id="XMLID_3197_" style="fill:#455A64;" d="M365.07,71.96c0.21,8.59,7.34,15.39,15.93,15.19
					c8.59-0.21,15.39-7.34,15.19-15.93c-0.21-8.59-7.34-15.39-15.93-15.19C371.67,56.24,364.87,63.37,365.07,71.96z"/>
				<path id="XMLID_3196_" style="fill:#455A64;" d="M354,83.3c0,0,2.8,11.78,3.86,13.71c1.06,1.92,3.16,2.43,3.16,2.43l-0.38-8.33
					L354,83.3z"/>
				<path id="XMLID_3195_" style="fill:#455A64;" d="M356.76,66.25c0,0-2.73-0.4-4.79,1.81c-2.02,2.17-0.71,8.79,2.03,15.23
					l4.76,0.43L356.76,66.25z"/>
				<path id="XMLID_3194_" style="fill:#FFBDA7;" d="M360.19,83.7c-0.94,0.59-2.34-1.21-3.54-2.41c-1.2-1.2-5.08-2.79-6.89,1.29
					c-1.85,4.15,1.92,9.49,4.96,10.37c5.24,1.51,5.94-1.85,5.94-1.85l0.89,21.24l0,0c3.71,4.52,12.44,4.78,16.77,3.9
					c3.46-0.7,3.51-3.15,0.1-6.92l-0.16-6.08c0,0,4.73,0.6,7.02,0.19c3.81-0.68,6.16-3.75,7.21-7.93c1.6-6.37,1.99-13.48,0.39-25.12
					c-1.97-14.31-18.75-14.05-27.62-8.16C356.38,68.11,360.19,83.7,360.19,83.7z"/>
				<path id="XMLID_3193_" style="fill:#455A64;" d="M360.23,85.3c-0.48,0.02-2.37-2.96-3.58-4.01c-1.68-1.46,0.12-15.04,0.12-15.04
					s-2.12-3.78,0.96-7.33c2.19-2.53,5.26-5.63,15.5-4.67c7.3,0.69,15.27,2.77,21.6-0.53c1.05,3.96,0.39,8.42-3.52,11.66
					c0,0-2.28,1.55-8.36,2.44c-6.08,0.89-15.59,0.23-16.89,0.08c-1.77-0.2-2.11,1.52-2.95,6.22
					C362.36,78.26,361.84,85.23,360.23,85.3z"/>
				<path id="XMLID_3099_" style="fill:#455A64;" d="M356.8,67.31l-5.83-2.95c0.78-1.67,2.71-2.36,4.32-1.55
					C356.9,63.62,357.57,65.64,356.8,67.31z"/>
				<path id="XMLID_3001_" style="fill:#F0997A;" d="M378.25,103.24c0,0-8.58-1.52-11.6-3.03c-2.02-1.01-3.71-2.82-4.22-3.98
					c0,0,0.62,2.52,2.46,4.76c2.25,2.74,13.43,4.7,13.43,4.7L378.25,103.24z"/>
			</g>
			<g id="XMLID_2990_">
				<path id="XMLID_2996_" style="fill:#263238;" d="M375.38,81.61c-0.05,0.98-0.86,1.74-1.8,1.68c-0.94-0.05-1.67-0.89-1.62-1.87
					c0.05-0.98,0.86-1.73,1.8-1.68C374.7,79.79,375.43,80.63,375.38,81.61z"/>
				<path id="XMLID_2995_" style="fill:#263238;" d="M374.27,75.17L370.51,77c-0.49-1.08-0.04-2.36,1-2.87
					C372.55,73.63,373.79,74.09,374.27,75.17z"/>
				<path id="XMLID_2994_" style="fill:#F0997A;" d="M376.36,93.13l5.34,1.46c-0.37,1.53-1.87,2.44-3.35,2.03
					C376.88,96.22,375.99,94.66,376.36,93.13z"/>
				<path id="XMLID_2993_" style="fill:#263238;" d="M391.98,76.76L388,75.39c0.34-1.12,1.51-1.73,2.61-1.35
					C391.7,74.42,392.32,75.63,391.98,76.76z"/>
				<path id="XMLID_2992_" style="fill:#263238;" d="M390.03,81.13c0.09,0.98-0.6,1.84-1.54,1.92c-0.94,0.08-1.78-0.64-1.87-1.62
					c-0.09-0.98,0.6-1.84,1.54-1.92C389.1,79.42,389.94,80.15,390.03,81.13z"/>
				<polygon id="XMLID_2991_" style="fill:#F0997A;" points="380.77,80.16 381.39,90.45 386.75,88.59 				"/>
			</g>
			<g id="XMLID_2980_">
				<g id="XMLID_2986_">
					<g id="XMLID_2987_">
						<path id="XMLID_2989_" style="fill:#27DEBF;" d="M378.31,116.24c-4.75-1-15.98-5.39-17.06-10.88l-0.14-3.01
							c-1.84-0.02-2.69,2.06-3.59,5.01c-0.38,7.76,7.8,14.85,16.03,16.75c0,0,0.42-3,1.81-5.1
							C376.84,116.77,378.31,116.24,378.31,116.24z"/>
						<path id="XMLID_2988_" style="fill:#27DEBF;" d="M378.27,104.04c0,0,1.89,0.51,3.32,1.99c6.15,6.37,2.64,14.72,2.64,14.72
							s-0.45-2.26-2.24-3.5c-1.79-1.23-3.68-1.01-3.68-1.01c1.51-1.61,0.91-4.43,0.1-6.92L378.27,104.04z"/>
					</g>
				</g>
			</g>
			<path style="fill:#37474F;" d="M396.15,76.48c-0.27-0.03-0.54-0.06-0.83-0.09c-2.68-0.25-6.19-0.31-8.33,0.27
				c-2.68,0.73-3.65,1.54-5.12,1.55c-1.57,0-2.54-0.81-5.35-1.52c-2.24-0.57-6-0.48-8.89-0.21c-0.31,0.03-0.61,0.06-0.9,0.09
				L354,80.01c1.17,0.15,2.02,0.71,2.86,1.51l9.27-2.53c0.13,0.18,0.26,0.33,0.35,0.45c0.1,0.14,0.2,0.33,0.27,0.62
				c0.26,1.06,0.38,3.11,0.93,4.24c0.22,0.45,0.54,1.01,1.08,1.52c0.18,0.16,0.36,0.31,0.56,0.45c0.11,0.07,0.21,0.14,0.33,0.2
				c0.29,0.16,0.61,0.3,0.98,0.42c0.06,0.02,0.11,0.04,0.17,0.05c0.08,0.02,0.17,0.05,0.26,0.07c0.09,0.02,0.18,0.04,0.28,0.06
				c0.27,0.05,0.56,0.1,0.88,0.12c0.12,0.01,0.25,0.02,0.38,0.03c0.15,0.01,0.31,0.01,0.47,0.01c3.65,0,5.24-1.56,6.2-3.17
				c0.97-1.61,0.82-3.88,2.5-3.88c0.06,0,0.11,0,0.16,0.01c0.05,0,0.1,0.01,0.15,0.02c1.23,0.26,1.01,2.34,1.73,3.84
				c0.28,0.57,0.64,1.15,1.13,1.64c0.09,0.09,0.18,0.17,0.27,0.25c0.05,0.04,0.1,0.08,0.15,0.12c0.05,0.04,0.1,0.08,0.15,0.11
				c0.05,0.03,0.09,0.07,0.14,0.1c0.08,0.05,0.12,0.08,0.15,0.1c0.04,0.02,0.08,0.05,0.12,0.07c0.03,0.02,0.06,0.03,0.08,0.05
				c0.41,0.22,0.88,0.4,1.44,0.52c0.04,0.01,0.09,0.02,0.13,0.03c0.52,0.11,1.11,0.16,1.77,0.15c3.42-0.02,4.67-1.82,5.27-2.96
				c0.6-1.14,0.89-3.17,1.2-4.25c0.07-0.24,0.2-0.42,0.33-0.56c0.26-0.26,0.76-0.89,0.83-1.57
				C397.08,77.16,396.61,76.54,396.15,76.48z M378.39,82.54c-0.18,0.62-0.55,1.51-1.35,2.24l0,0c-0.81,0.74-2.07,1.31-4.03,1.29
				c-1.98-0.02-3.11-0.76-3.77-1.62c-0.04-0.05-0.08-0.11-0.12-0.16c-0.04-0.05-0.07-0.11-0.11-0.16c-0.03-0.05-0.06-0.1-0.09-0.15
				c-0.03-0.04-0.05-0.09-0.07-0.13c-0.02-0.04-0.04-0.07-0.05-0.11c-0.02-0.03-0.03-0.07-0.05-0.1c-0.02-0.05-0.05-0.11-0.07-0.16
				l0,0c-0.07-0.16-0.13-0.32-0.17-0.47c0,0,0-0.01,0-0.01c-0.03-0.1-0.06-0.19-0.08-0.28c-0.04-0.16-0.08-0.32-0.11-0.45
				c-0.01-0.03-0.01-0.06-0.02-0.09c-0.01-0.03-0.01-0.06-0.02-0.08c-0.24-1.12-0.49-3.33,0.15-3.83c0.62-0.48,2.33-1.02,5.04-0.79
				c0.09,0,0.19,0.01,0.29,0.02c0.42,0.04,0.83,0.1,1.24,0.19c0.16,0.03,0.32,0.07,0.48,0.1c0.42,0.1,0.83,0.22,1.2,0.35
				c0.13,0.04,0.25,0.09,0.36,0.14c0.14,0.05,0.27,0.11,0.4,0.17c0.03,0.01,0.05,0.02,0.08,0.04c0.05,0.02,0.1,0.05,0.14,0.07
				c0.37,0.19,0.65,0.39,0.79,0.59C378.96,79.83,378.74,81.29,378.39,82.54z M394.28,82.01c-0.24,0.88-0.77,2.77-2.7,3.6
				c-0.55,0.24-1.23,0.39-2.04,0.4c-2.16,0.04-3.35-0.76-4-1.67c0-0.01-0.01-0.01-0.01-0.02c-0.03-0.04-0.05-0.07-0.07-0.1
				c-0.03-0.04-0.05-0.08-0.08-0.12c-0.01-0.02-0.03-0.04-0.04-0.06c-0.03-0.06-0.07-0.12-0.1-0.18c-0.04-0.07-0.07-0.14-0.1-0.21
				c-0.02-0.03-0.03-0.07-0.05-0.1c-0.01-0.02-0.01-0.04-0.02-0.06c-0.01-0.03-0.02-0.06-0.03-0.08c-0.01-0.02-0.02-0.05-0.02-0.07
				c-0.11-0.3-0.18-0.59-0.23-0.84c-0.23-1.25-0.33-2.7,0.21-3.39c0.54-0.69,2.57-1.45,4.51-1.67c0.45-0.05,0.87-0.08,1.25-0.09
				c0.05,0,0.1,0,0.15,0c0.05,0,0.11,0,0.16,0c0.15,0,0.29,0,0.43,0.01c0.05,0,0.1,0,0.16,0.01c0.07,0.01,0.14,0.01,0.2,0.02
				c0.12,0.01,0.23,0.02,0.34,0.03c0.22,0.03,0.43,0.06,0.62,0.1c0.05,0.01,0.1,0.02,0.15,0.03c0.01,0,0.02,0,0.04,0.01
				c0.03,0.01,0.07,0.01,0.1,0.02c0.05,0.01,0.1,0.03,0.15,0.04c0.06,0.02,0.12,0.04,0.18,0.05c0.11,0.03,0.2,0.07,0.29,0.11
				c0.02,0.01,0.03,0.01,0.05,0.02c0.29,0.12,0.51,0.25,0.66,0.38C395,78.68,394.58,80.89,394.28,82.01z"/>
		</g>
		<path style="fill:#FAFAFA;" d="M361.27,105.69c0,0,3.62,18.17,5.18,30.46c1.57,12.29,1.27,46.98,0.43,69
			c-0.61,16.04-3,45.68-3,45.68s-3.96,0.8-13.51-0.78c-8.14-1.34-12.25-3.76-14-4.8c0,0,1.51-45.08,2.65-60.81
			c1.05-14.51,1.02-22.5,1.02-22.5l-3.42-33.13c0,0,0.26-20.82,6.72-21.7C350.04,106.21,361.27,105.69,361.27,105.69z"/>
		<path style="fill:#27DEBF;" d="M355.09,135.49c0.03-0.76-0.07-2.4-0.2-4.48c-0.65-10.15,0.28-24.84,3.71-25.57l0.3,1.4
			c-2.51,0.54-2.9,19.15-2.58,24.08c0.14,2.12,0.24,3.79,0.2,4.64L355.09,135.49z"/>
		<g>
			<path style="fill:#FFBDA7;" d="M342.1,213.87c-1.66-2.82-1.74-4.91-4.23-7.42c-0.93-0.94-1.57-1.74-2.25-3.75
				c-0.77-2.25-0.72-4.6-0.9-7.06l-14.45,0.67c0.1,4.52,0.69,11.22,1.78,15.99c2.75,12.07,5.4,17.15,10.58,18.32
				c8.28,1.87,10.32-1.69,7.41-7.67c-2.15-4.41-2.65-7.88-2.65-7.88c1.45,1.49,2.1,2.18,3.09,2.76c1.96,1.14,3.47,0.24,3.93-0.43
				C344.76,216.87,343.4,216.08,342.1,213.87z"/>
			<path style="fill:#F0F0F0;" d="M345.96,107.12c0,0-7.68-0.12-11.99,3.77c-4.3,3.88-6.6,14.26-9.39,24.67
				c-2.8,10.4-5.26,20.51-6,27.75c-0.62,6.05,1.4,37.86,1.4,37.86s8.79,1.85,15.55-1.85l0.29-35.36l11.17-35.43
				C346.98,128.52,350.48,118.42,345.96,107.12z"/>
		</g>
		<path style="fill:#EBEBEB;" d="M361.01,99.77c-1.01-0.21-1.93,0.32-2.75,1.72c-0.82,1.4-2.63,4.34-2.63,4.34s-0.93,9.76,0,12.18
			c0.81,2.1,6.18,12.03,6.18,12.03s-0.35,9.65-0.44,12.52c-0.08,2.87,5.49,14.9,6.12,20.48c0,0,0.28-22.69-0.55-29
			c-1.44-10.97-3.24-24.1-5.67-28.59L361.01,99.77z"/>
		<g>
			<g>
				<path style="fill:#455A64;" d="M353.03,169.16c-0.04,0-0.08,0-0.12,0l0.04-1c0.89,0.03,2.12-0.47,3.28-1.22
					c-1.09-0.74-2.07-1.62-2.73-2.48c-1.61-2.09-5.15-16.99-4.06-20.46c0.91-2.91,3.77-9.33,6.32-9.44c0.02,0,0.04,0,0.07,0
					c2.54,0,5.88,6.07,7.03,8.87c1.38,3.37-0.87,18.52-2.3,20.73c-0.59,0.91-1.49,1.87-2.51,2.7c1.23,0.65,2.45,1.05,3.38,0.94
					l0.12,0.99c-1.23,0.15-2.86-0.4-4.38-1.27C355.77,168.48,354.25,169.16,353.03,169.16z M355.84,135.55c-0.01,0-0.02,0-0.03,0
					c-1.5,0.06-4.18,4.83-5.4,8.74c-1,3.19,2.4,17.61,3.89,19.55c0.66,0.85,1.69,1.74,2.82,2.46c1.06-0.82,2.02-1.79,2.6-2.7
					c1.33-2.05,3.49-16.71,2.22-19.81C360.39,140.04,357.35,135.55,355.84,135.55z"/>
			</g>
			<g>
				<path style="fill:#263238;" d="M362.95,168.23c0.03,0.81-0.6,1.5-1.41,1.53c-0.81,0.03-1.5-0.6-1.53-1.41
					c-0.03-0.81,0.6-1.5,1.41-1.53C362.23,166.78,362.92,167.42,362.95,168.23z"/>
			</g>
			<g>
				<path style="fill:#263238;" d="M354.4,168.59c0.03,0.81-0.6,1.5-1.41,1.53c-0.81,0.03-1.5-0.6-1.53-1.41
					c-0.03-0.81,0.6-1.5,1.41-1.53C353.68,167.15,354.37,167.78,354.4,168.59z"/>
			</g>
			<g>
				<g>
					<path style="fill:#27DEBF;" d="M363.11,149.99l-0.84-0.06c-0.18-0.01-0.31-0.17-0.3-0.35c0.17-2.8,0.08-4.86-0.26-5.68
						c-1.48-3.61-4.55-8.15-5.89-8.09c-1.34,0.06-4.01,4.84-5.18,8.56c-0.27,0.85-0.18,2.91,0.22,5.69
						c0.03,0.18-0.09,0.35-0.27,0.38l-0.84,0.13c-0.18,0.03-0.35-0.1-0.38-0.28c-0.46-3.11-0.52-5.25-0.17-6.36
						c0.63-2,3.58-9.49,6.55-9.61c2.97-0.13,6.55,7.08,7.34,9.02c0.44,1.07,0.56,3.2,0.37,6.35
						C363.45,149.86,363.29,150,363.11,149.99z"/>
				</g>
			</g>
		</g>
		<g>
			<path style="fill:#FAFAFA;" d="M378.25,103.24c1.32,0.11,2.46,2.06,5.51,2.97c5.68,1.68,10.84,4.26,12.43,7.75
				c2.64,5.77,3.06,6.91,4.01,32.65c0.95,25.74,1.26,99.05,1.26,99.05s-4.2,2.03-8.68,1.76c0,0,0.23-80.9-0.32-99.1
				c-0.54-18.19-3.3-27.07-7.24-33.06c-1.11-5.02-4.65-8.34-6.95-10.79L378.25,103.24z"/>
			<path style="fill:#EBEBEB;" d="M385.23,115.26c3.94,6,6.69,14.87,7.24,33.06c0.06,2.16,0.12,5.2,0.17,8.85l0,0
				c0,0,3.25-16.49,2.67-19.99c-0.58-3.5-4.37-10.76-4.37-10.76c0.49-6.02-0.91-12.86-3.21-16.98c-0.58-1.03-1.26-1.9-2.01-2.62
				c-0.48-0.48-1.86-1.31-2.45-1.67c-2.37-1.44-3.69-1.81-5.01-1.92l0.03,1.24C380.58,106.92,384.12,110.24,385.23,115.26z"/>
		</g>
	</g>
</g>
<g id="Character_2">
	<g id="Character_2_">
		<g id="XMLID_67_">
			<path style="fill:#B16668;" d="M266.24,106.96c7.55-0.12,11.61,3.28,17.16,11.98c4.73,7.42,15.68,25.18,18.76,30.54
				c3.48,6.04,3.96,8.49,1.24,13.02c-2.59,4.3-27.14,32.66-27.14,32.66l-6.34-11.24l15.78-26.38l-18.5-27.33L266.24,106.96z"/>
			<path style="fill:#27DEBF;" d="M265.75,106.63c5.46-0.29,8.86,0.84,12.15,4.03c3.29,3.19,20.24,31.62,20.24,31.62
				s-2.44,5.83-16.74,13.45l-13.98-19.04L265.75,106.63z"/>
			<path style="opacity:0.2;fill:#263238;" d="M265.75,106.63c5.46-0.29,8.86,0.84,12.15,4.03c3.29,3.19,20.24,31.62,20.24,31.62
				s-2.44,5.83-16.74,13.45l-13.98-19.04L265.75,106.63z"/>
			<g id="XMLID_89_">
				<g>
					<g id="XMLID_103_">
						<path id="XMLID_104_" style="fill:#FFA8A7;" d="M275.31,340.1c-0.15-4.25,2.94-46.12,2.94-46.12l-20.37,14.77
							c4.18,24.95,5.07,30.84,5.15,34.92l0,0c-0.03,0.1-0.12,0.44-0.11,1.05c0.02,4.85,5.49,7.46,9.76,10.7
							c1.69,1.28,6.59,5.05,11.54,7.54c3.1,1.56,9.4,1.7,10.18-0.29c-5.19-3.97-12.75-9.9-16.88-14.43
							C275.54,346.06,275.46,344.35,275.31,340.1z"/>
					</g>
					<g>
						<path style="fill:#455A64;" d="M303.25,367.87c0.27,0,0.67,2.94-0.78,4.18c-1.67,1.44-6.57,3.8-13.05,2.97
							c-6.48-0.84-9.98-2.84-12.57-5.01c-2.59-2.17-6.22-5.23-9.15-5.87c-2.72-0.6-5.68-1.83-6.55-2.67
							c-0.87-0.84-0.75-4.58-0.75-4.58L303.25,367.87z"/>
						<path id="XMLID_101_" style="fill:#27DEBF;" d="M262.98,342.49c0,0-0.81,0.01-0.98,0.87c-0.2,1.03-0.41,4.03-0.84,5.72
							c-0.59,2.35-0.99,7.17-0.64,9.09c0.36,1.92,4.79,3.25,7.63,4.33c2.9,1.1,6.24,3.38,9.18,5.8c3.04,2.51,9.44,5.12,13.67,5.09
							c4.99-0.04,10.62-1.65,11.91-3.97c1.59-2.87,0.34-4.53-7.06-7.96c-1.4-0.65-6.33-3.56-8-4.62
							c-4.54-2.86-9.04-6.84-11.13-11.89c-0.24-0.59-0.5-1.25-1.06-1.55c-0.43-0.23-0.95-0.2-1.44-0.13
							c-1.23,0.17-2.44,0.54-3.56,1.07c-0.99,0.47-2.4,1.02-2.38,2.3c0.01,0.44,0.14,0.87,0.28,1.29c0.09,0.26,0.16,0.61-0.07,0.76
							c-0.21,0.15-0.5-0.02-0.69-0.19c-0.78-0.69-1.34-1.58-2-2.4c-0.35-0.43-0.73-0.85-1.17-1.19c-0.4-0.31-0.91-0.47-1.27-0.82
							C262.89,343.64,263,343.08,262.98,342.49z"/>
						<path id="XMLID_99_" style="opacity:0.9;fill:#FFFFFF;" d="M262.98,342.49c0,0-0.81,0.01-0.98,0.87
							c-0.2,1.03-0.41,4.03-0.84,5.72c-0.59,2.35-0.99,7.17-0.64,9.09c0.36,1.92,4.79,3.25,7.63,4.33c2.9,1.1,6.24,3.38,9.18,5.8
							c3.04,2.51,9.44,5.12,13.67,5.09c4.99-0.04,10.62-1.65,11.91-3.97c1.59-2.87,0.34-4.53-7.06-7.96c-1.4-0.65-6.33-3.56-8-4.62
							c-4.54-2.86-9.04-6.84-11.13-11.89c-0.24-0.59-0.5-1.25-1.06-1.55c-0.43-0.23-0.95-0.2-1.44-0.13
							c-1.23,0.17-2.44,0.54-3.56,1.07c-0.99,0.47-2.4,1.02-2.38,2.3c0.01,0.44,0.14,0.87,0.28,1.29c0.09,0.26,0.16,0.61-0.07,0.76
							c-0.21,0.15-0.5-0.02-0.69-0.19c-0.78-0.69-1.34-1.58-2-2.4c-0.35-0.43-0.73-0.85-1.17-1.19c-0.4-0.31-0.91-0.47-1.27-0.82
							C262.89,343.64,263,343.08,262.98,342.49z"/>
						<path style="opacity:0.8;fill:#27DEBF;" d="M277.33,368.29c-1.29-1.07-2.66-2.09-4.04-3.01v-0.01c0,0,8.71,5.29,12.23,2.89
							c2.27-1.55,1.19-3.43,1.13-4.03c-0.05-0.6,5.54-3.18,7.74-3.44v0c0.61,0.34,1.13,0.61,1.45,0.76c7.4,3.43,8.65,5.09,7.06,7.96
							c-1.29,2.32-5.36,4.12-11.82,4.12C286.86,373.54,280.37,370.8,277.33,368.29z"/>
						<path style="opacity:0.8;fill:#FFFFFF;" d="M277.33,368.29c-1.29-1.07-2.66-2.09-4.04-3.01v-0.01c0,0,8.71,5.29,12.23,2.89
							c2.27-1.55,1.19-3.43,1.13-4.03c-0.05-0.6,5.54-3.18,7.74-3.44v0c0.61,0.34,1.13,0.61,1.45,0.76c7.4,3.43,8.65,5.09,7.06,7.96
							c-1.29,2.32-5.36,4.12-11.82,4.12C286.86,373.54,280.37,370.8,277.33,368.29z"/>
						<path style="fill:#27DEBF;" d="M286.04,362.38c4.6,1.84,2.64,2.7,1.35,2.89c-1.29,0.18-9.04-4.34-13.77-8.08
							c-4.93-3.9-8.04-8.17-9.87-9.6c-0.68-0.53-1.42-1.19-2.07-1.8c0.12-1.01,0.22-1.94,0.31-2.42c0.17-0.87,0.98-0.87,0.98-0.87
							c0.02,0.6-0.09,1.15,0.36,1.6c0.36,0.35,0.87,0.51,1.27,0.82c0.44,0.34,0.82,0.76,1.17,1.19c0.65,0.81,1.22,1.7,2,2.4
							C271.8,353.6,281.44,360.54,286.04,362.38z"/>
						<g>
							<g>
								<path style="fill:#FAFAFA;" d="M287.07,364.59c-0.1,0-0.2-0.03-0.29-0.1c-0.19-0.16-0.22-0.45-0.06-0.64
									c1.3-1.59,5.05-3.7,8.44-3.33c0.25,0.03,0.43,0.25,0.4,0.5c-0.03,0.25-0.23,0.42-0.5,0.4c-3.16-0.34-6.6,1.74-7.63,3
									C287.33,364.53,287.2,364.59,287.07,364.59z"/>
							</g>
							<g>
								<path style="fill:#FAFAFA;" d="M283.05,362.12c-0.1,0-0.2-0.03-0.29-0.1c-0.2-0.16-0.22-0.45-0.06-0.64
									c1.3-1.59,5.04-3.69,8.44-3.33c0.25,0.03,0.43,0.25,0.4,0.5c-0.03,0.25-0.25,0.43-0.5,0.4c-3.16-0.34-6.6,1.73-7.63,3
									C283.32,362.06,283.18,362.12,283.05,362.12z"/>
							</g>
							<g>
								<path style="fill:#FAFAFA;" d="M279.03,359.78c-0.1,0-0.2-0.03-0.29-0.1c-0.2-0.16-0.22-0.45-0.06-0.64
									c1.3-1.59,5.05-3.7,8.44-3.32c0.25,0.03,0.43,0.25,0.4,0.5c-0.03,0.25-0.24,0.43-0.5,0.4c-3.16-0.34-6.6,1.73-7.63,3
									C279.3,359.72,279.17,359.78,279.03,359.78z"/>
							</g>
							<g>
								<path style="fill:#FAFAFA;" d="M275.31,357.1c-0.1,0-0.2-0.03-0.29-0.1c-0.2-0.16-0.22-0.45-0.06-0.64
									c1.3-1.59,5.06-3.7,8.44-3.33c0.25,0.03,0.43,0.25,0.4,0.5c-0.03,0.25-0.24,0.43-0.5,0.4c-3.16-0.34-6.6,1.73-7.63,3
									C275.58,357.05,275.44,357.1,275.31,357.1z"/>
							</g>
							<g>
								<path style="fill:#FAFAFA;" d="M271.66,354.43c-0.1,0-0.2-0.03-0.28-0.1c-0.2-0.16-0.23-0.44-0.07-0.64
									c1.79-2.26,5.83-3.74,9.21-3.37c0.25,0.03,0.43,0.25,0.4,0.5c-0.03,0.25-0.24,0.42-0.5,0.4c-3.05-0.33-6.81,1.03-8.4,3.03
									C271.93,354.37,271.8,354.43,271.66,354.43z"/>
							</g>
						</g>
					</g>
				</g>
				<g>
					<g id="XMLID_97_">
						<path id="XMLID_98_" style="fill:#FFA8A7;" d="M235.98,308.89l-20.56-0.37c0.31,13.72,2.49,28.96,2.84,41.83
							c0.07,2.42-0.06,18.84,0.85,23.82c1.37,7.49,10.27,6.48,10.74,2c0.47-4.48-0.57-23.64-0.54-25.62
							c-0.08-8.26,3.79-22.2,5.82-37.02C235.24,312.8,235.89,309.6,235.98,308.89z"/>
					</g>
					<g>
						<path style="fill:#455A64;" d="M233.21,379.29c0.19,4.4-0.2,7.37-1.5,10.1c-1.3,2.72-4.14,3.82-7.19,3.37
							c-3.04-0.45-7.05-2.08-8.28-5.77c-1.23-3.69-1.32-6.3-1.05-10.42L233.21,379.29z"/>
						<path id="XMLID_95_" style="fill:#27DEBF;" d="M218.22,348.77c-1.21,0.22-0.98,6.13-1.1,12.09c-0.12,6.38-1.74,9.18-1.9,14.42
							c-0.18,5.99,0.4,8.6,2.83,11.96c2.43,3.37,10.11,6.13,13.21,0.65c2.53-4.47,2.18-9.11,1.32-14.98
							c-0.89-6.07-1.57-10.34-1.78-14.99c-0.21-4.45-0.33-8.77-1.44-9.15c-0.02,0.66-0.01,1.49-0.04,2.14c-0.02,0.5,0.1,2.9-0.58,3
							c-0.12-0.56-0.16-1.09-0.18-1.67c-0.02-0.5-0.11-1.05-0.48-1.39c-0.37-0.35-0.91-0.42-1.42-0.47
							c-1.23-0.12-2.46-0.21-3.69-0.2c-0.61,0.01-1.23,0.04-1.84,0.11c-0.5,0.06-1.08,0.16-1.53,0.38c-0.28,0.14-0.52,0.37-0.6,0.67
							c-0.06,0.22-0.02,0.45,0,0.68c0.04,0.41,0.03,0.82-0.03,1.23c-0.03,0.18-0.13,0.4-0.31,0.38c-0.15-0.02-0.22-0.19-0.24-0.34
							c-0.08-0.71-0.04-1.24-0.09-2.07c-0.02-0.38-0.01-0.91-0.05-1.3C218.26,349.53,218.23,349.15,218.22,348.77z"/>
						<path id="XMLID_93_" style="opacity:0.9;fill:#FFFFFF;" d="M218.22,348.77c-1.21,0.22-0.98,6.13-1.1,12.09
							c-0.12,6.38-1.74,9.18-1.9,14.42c-0.18,5.99,0.4,8.6,2.83,11.96c2.43,3.37,10.11,6.13,13.21,0.65
							c2.53-4.47,2.18-9.11,1.32-14.98c-0.89-6.07-1.57-10.34-1.78-14.99c-0.21-4.45-0.33-8.77-1.44-9.15
							c-0.02,0.66-0.01,1.49-0.04,2.14c-0.02,0.5,0.1,2.9-0.58,3c-0.12-0.56-0.16-1.09-0.18-1.67c-0.02-0.5-0.11-1.05-0.48-1.39
							c-0.37-0.35-0.91-0.42-1.42-0.47c-1.23-0.12-2.46-0.21-3.69-0.2c-0.61,0.01-1.23,0.04-1.84,0.11
							c-0.5,0.06-1.08,0.16-1.53,0.38c-0.28,0.14-0.52,0.37-0.6,0.67c-0.06,0.22-0.02,0.45,0,0.68c0.04,0.41,0.03,0.82-0.03,1.23
							c-0.03,0.18-0.13,0.4-0.31,0.38c-0.15-0.02-0.22-0.19-0.24-0.34c-0.08-0.71-0.04-1.24-0.09-2.07
							c-0.02-0.38-0.01-0.91-0.05-1.3C218.26,349.53,218.23,349.15,218.22,348.77z"/>
						<path style="fill:#27DEBF;" d="M215.33,373.58c-0.03,0.86-0.19,6.58,1.45,7.44c1.77,0.93,2.24-3.6,2.24-3.6
							s3.78-1.59,9.71,0.33c-0.2,0.94,0.98,3.88,2.47,3.08c1.48-0.79,1.44-7.32,1.44-7.41c0.81,5.63,1.06,10.14-1.39,14.47
							c-3.1,5.48-10.78,2.71-13.21-0.65c-2.43-3.37-3.01-5.97-2.83-11.96C215.24,374.69,215.28,374.12,215.33,373.58z"/>
						<path style="opacity:0.8;fill:#FFFFFF;" d="M215.33,373.58c-0.03,0.86-0.19,6.58,1.45,7.44c1.77,0.93,2.24-3.6,2.24-3.6
							s3.78-1.59,9.71,0.33c-0.2,0.94,0.98,3.88,2.47,3.08c1.48-0.79,1.44-7.32,1.44-7.41c0.81,5.63,1.06,10.14-1.39,14.47
							c-3.1,5.48-10.78,2.71-13.21-0.65c-2.43-3.37-3.01-5.97-2.83-11.96C215.24,374.69,215.28,374.12,215.33,373.58z"/>
						<path style="fill:#27DEBF;" d="M219.51,377.76c0.19,2.14-1.99,1.63-2.39-1.38c-0.39-3.01,0.54-10.33,0-15.52
							c0.11-5.96-0.12-11.87,1.1-12.09c0,0.07,0.01,0.15,0.02,0.22l0.14,3.01c0.01,0.44,0.01,0.83,0.06,1.29
							c0.41,4.36,0.64,12.84,0.67,16.86C219.12,374.17,219.32,375.62,219.51,377.76z"/>
						<path style="fill:#27DEBF;" d="M228.07,377.76c0.19-2.14,0.39-3.59,0.41-7.61c0.02-3.99,0.25-12.37,0.66-16.76
							c0.23-0.76,0.17-2.12,0.18-2.48c0.02-0.6,0.02-1.36,0.03-2c0-0.04,0.01-0.09,0.01-0.13c0.8,0.29,1.09,2.65,1.26,5.62
							c0.02,1.72-0.04,3.87-0.17,6.46c-0.54,5.19,0.41,12.55,0.01,15.56C230.07,379.43,227.88,379.9,228.07,377.76z"/>
						<g>
							<g>
								<path style="fill:#FAFAFA;" d="M228.87,377.91c-0.06,0-0.11-0.01-0.17-0.03c-0.05-0.02-4.71-1.84-9.52-0.03
									c-0.24,0.09-0.5-0.03-0.59-0.27c-0.09-0.24,0.03-0.5,0.27-0.59c5.14-1.94,9.97-0.05,10.18,0.04
									c0.23,0.09,0.35,0.36,0.25,0.59C229.22,377.81,229.05,377.91,228.87,377.91z"/>
							</g>
							<g>
								<path style="fill:#FAFAFA;" d="M229.43,373.18c-0.05,0-0.1-0.01-0.15-0.03c-0.05-0.02-5.28-1.86-10.66-0.03
									c-0.24,0.08-0.5-0.05-0.58-0.29c-0.08-0.24,0.05-0.5,0.29-0.58c5.69-1.93,11.03-0.05,11.26,0.03
									c0.24,0.09,0.36,0.35,0.27,0.58C229.79,373.06,229.61,373.18,229.43,373.18z"/>
							</g>
							<g>
								<path style="fill:#FAFAFA;" d="M218.47,368.69c-0.17,0-0.34-0.1-0.42-0.27c-0.1-0.23,0-0.5,0.23-0.6
									c5.3-2.41,10.99-0.17,11.23-0.07c0.23,0.09,0.35,0.36,0.25,0.59c-0.09,0.23-0.36,0.34-0.59,0.25
									c-0.05-0.02-5.59-2.19-10.51,0.05C218.6,368.67,218.53,368.69,218.47,368.69z"/>
							</g>
							<g>
								<path style="fill:#FAFAFA;" d="M218.37,364.5c-0.17,0-0.33-0.1-0.41-0.26c-0.11-0.23-0.01-0.5,0.21-0.61
									c5.81-2.77,11.23-0.23,11.45-0.13c0.23,0.11,0.32,0.38,0.21,0.61c-0.11,0.23-0.39,0.32-0.61,0.21
									c-0.05-0.03-5.26-2.45-10.67,0.13C218.5,364.49,218.43,364.5,218.37,364.5z"/>
							</g>
							<g>
								<path style="fill:#EBEBEB;" d="M218.27,359.8c-0.17,0-0.33-0.09-0.41-0.25c-0.11-0.23-0.02-0.5,0.21-0.61
									c5.44-2.68,11.3-0.12,11.55-0.01c0.23,0.1,0.33,0.37,0.23,0.6c-0.1,0.23-0.37,0.34-0.6,0.23c-0.06-0.03-5.72-2.5-10.77-0.01
									C218.41,359.78,218.34,359.8,218.27,359.8z"/>
							</g>
						</g>
					</g>
				</g>
				<path id="XMLID_92_" style="fill:#27DEBF;" d="M225.73,166.89c-2.72,5.75-5.88,16.83-6.45,24.22c-2.34,30.38-1.08,74-1.08,74
					c-0.27,3.17-2.28,10.38-3.63,24.36c-1.6,16.51,0.41,72.46,0.41,72.46s9.88,5.89,17.56-0.81c0,0,8.93-76.91,11-93.33
					c1.81-14.33,6.86-45.32,6.86-45.32l5.91,45.84c0,0-0.55,12.89-0.17,21.22c0.44,9.69,3.15,59.06,3.15,59.06
					s13.57,4.59,19.63-1.93c0,0,1.44-68.48,1.65-80.14c0.4-22.87,0.01-64.55-3.71-88.54L225.73,166.89z"/>
				<path id="XMLID_91_" style="opacity:0.2;fill:#263238;" d="M225.73,166.89c-2.72,5.75-5.88,16.83-6.45,24.22
					c-2.34,30.38-1.08,74-1.08,74c-0.27,3.17-2.28,10.38-3.63,24.36c-1.6,16.51,0.41,72.46,0.41,72.46s9.88,5.89,17.56-0.81
					c0,0,8.93-76.91,11-93.33c1.81-14.33,6.86-45.32,6.86-45.32l5.91,45.84c0,0-0.55,12.89-0.17,21.22
					c0.44,9.69,3.15,59.06,3.15,59.06s13.57,4.59,19.63-1.93c0,0,1.44-68.48,1.65-80.14c0.4-22.87,0.01-64.55-3.71-88.54
					L225.73,166.89z"/>
				<path id="XMLID_90_" style="opacity:0.2;fill:#263238;" d="M250.39,222.46l2.12-14.58c0,0,12.32-1.65,17.9-6.89
					c0,0-4.19,7.68-14.51,9.17l-2.18,13.19l1.88,39.46L250.39,222.46z"/>
			</g>
			<g id="XMLID_86_">
				<g id="XMLID_87_">
					<path id="XMLID_88_" style="fill:#27DEBF;" d="M275.93,144.94c-0.54,5.99-0.67,17.71-0.67,17.71
						c2.17,15.32,3.91,30.28,3.91,30.28c-22.88,12.21-57.41,2.33-61.76-2.71c2.15-15,6.89-24.34,9.98-32.78l-5.73-25.53
						c0,0,9.87-8.21,8.98-24.86l13.52-1.4l12.91,0.36l9.17,0.65c2.73,2.55,7.61,7.89,11.98,14.94
						C282.66,128.78,282.83,137.71,275.93,144.94z"/>
				</g>
			</g>
			<path style="opacity:0.1;" d="M260.4,144.02c0,0-5.97,5.28-13.3,3.2c-7.33-2.08-8.78-8.28-8.78-8.28s-0.24,8.25,8.99,10.46
				C256.21,151.53,260.4,144.02,260.4,144.02z"/>
			<g id="XMLID_68_">
				<path style="fill:#37474F;" d="M241.35,97.54c-0.03-2.29-3.22-7.07-6.16-12.41c-2.94-5.34-6.11-13.96,0-22.03
					c6.11-8.07,19.93-12.87,28.07-9.05c8.14,3.82,10.42,13.12,10.42,13.12L241.35,97.54z"/>
				<path style="fill:#27DEBF;" d="M232.6,78.49c-0.01-0.02,0-0.04-0.01-0.06c-0.2-0.47-0.84-0.79-1.3-0.97
					c-0.59-0.22-1.27-0.33-1.91-0.3c-0.78,0.03-2.24,0.55-2.2,1.54c0.05,1.19,2,1.31,2.84,1.27c0.69-0.03,1.46-0.1,2.15-0.33
					c-0.14,1.39-0.04,2.83-0.59,4.12c-0.26,0.6-0.63,1.17-1.14,1.58c-0.71,0.57-1.53,0.67-2.41,0.51c-0.46-0.09-0.27,0.59,0.05,0.69
					c1.67,0.5,3.22-0.35,4.05-1.81c1.01-1.77,0.64-3.82,1.07-5.74C233.27,78.68,232.9,78.45,232.6,78.49z M228.79,79.11
					c-0.15-0.03-0.54-0.1-0.63-0.25c-0.07-0.11,0.04-0.21,0.14-0.31c0.68-0.7,1.71-0.59,2.58-0.4c0.25,0.05,0.48,0.12,0.71,0.22
					c0.12,0.05,0.24,0.12,0.36,0.18c0.05,0.03,0.1,0.05,0.15,0.08c0.03,0.02,0.06,0.04,0.09,0.06c-0.58,0.34-1.35,0.41-2,0.46
					C229.72,79.19,229.24,79.21,228.79,79.11z"/>
				<g id="XMLID_84_">
					<path id="XMLID_85_" style="fill:#B16668;" d="M268.16,60.07c3.05,1.56,7.32,4.89,6.66,20.44
						c-0.52,12.15-4.95,17.75-7.04,18.82c-2.09,1.07-4.64,1.31-8.7,0.89v6.91c0,0,4.68,12.42,1.85,18.73c0,0-6.49-3.47-10.48-7.31
						c-6.88-6.62-8.94-9.71-8.94-9.71l-0.25-18.4c0,0-2.7,1.98-6.93-1.28c-3.49-2.69-4.9-7.5-2.48-10.28
						c1.26-1.45,3.26-2.05,5.14-1.71c2.09,0.38,3.73,1.9,4.67,3.75c0.19,0.37,0.48,0.75,0.89,0.8c0.31,0.04,0.62-0.13,0.82-0.37
						c0.2-0.24,0.32-0.54,0.41-0.83c0.86-2.57,0.46-5.28,1.06-7.9c0.47-2.03,1.4-3.93,2.64-5.6c2.89-3.87,7.37-6.29,12.1-7.07
						C262.41,59.47,265.33,59.56,268.16,60.07z"/>
				</g>
				<g id="XMLID_83_">
					<path style="fill:#B16668;" d="M273.78,67.54L273.78,67.54c0,0.28-5.42-4.14-13.63-2.9c-4.82,0.73-10.16,2.72-14.54,5.58
						c0.49-1.14,1.12-2.22,1.86-3.21c2.9-3.88,7.38-6.29,12.1-7.07c2.84-0.47,5.76-0.38,8.58,0.13
						C270.05,61.04,272.43,62.69,273.78,67.54z"/>
				</g>
				<g id="XMLID_81_">
					<path id="XMLID_82_" style="fill:#263238;" d="M256.17,77.03c0.09,0.95-0.61,1.82-1.57,1.94c-0.96,0.12-1.81-0.56-1.91-1.51
						c-0.09-0.95,0.61-1.82,1.57-1.94C255.23,75.41,256.08,76.08,256.17,77.03z"/>
				</g>
				<g id="XMLID_79_">
					<path id="XMLID_80_" style="fill:#9A4A4D;" d="M256.68,88.64l6.11,1.55c-0.39,1.75-2.08,2.81-3.77,2.39
						C257.34,92.15,256.29,90.39,256.68,88.64z"/>
				</g>
				<g id="XMLID_77_">
					<path id="XMLID_78_" style="fill:#263238;" d="M271.89,72.92l-3.54-1.76c0.45-1,1.61-1.43,2.59-0.94
						C271.91,70.71,272.34,71.92,271.89,72.92z"/>
				</g>
				<g id="XMLID_75_">
					<path id="XMLID_76_" style="fill:#263238;" d="M254.66,71.57l-3.58,1.68c-0.51-0.98-0.11-2.15,0.87-2.61
						C252.95,70.18,254.16,70.59,254.66,71.57z"/>
				</g>
				<g id="XMLID_73_">
					<path id="XMLID_74_" style="fill:#263238;" d="M270.31,76.19c0.09,0.95-0.61,1.82-1.57,1.94c-0.96,0.12-1.81-0.56-1.9-1.51
						c-0.09-0.95,0.61-1.82,1.57-1.94C269.37,74.56,270.22,75.24,270.31,76.19z"/>
				</g>
				<g id="XMLID_71_">
					<polygon id="XMLID_72_" style="fill:#9A4A4D;" points="261.4,75.84 262.27,85.79 267.42,83.84 					"/>
				</g>
				<g id="XMLID_69_">
					<path id="XMLID_70_" style="fill:#9A4A4D;" d="M259.08,100.21c-4.28-0.64-13.35-2.92-14.92-6.28c0,0,0.75,2.74,3.49,4.81
						c2.74,2.07,11.43,3.92,11.43,3.92V100.21z"/>
				</g>
			</g>
			<path style="fill:#27DEBF;" d="M273.78,67.54c0,0-2.22-3.57-12.38-2.62c-4.86,0.46-11.4,2.44-15.78,5.3
				c-3.14,2.04-5.79,4.54-7.39,7.33c-0.39-0.18-0.81-0.3-1.25-0.38c-1.88-0.34-3.87,0.26-5.14,1.71c-0.02,0.02-0.03,0.04-0.05,0.06
				c-1.86-3.39-3.23-6.83-2.46-11.85c1.08-7.07,8.09-11.96,15.89-15.27c9.21-3.91,19.3-2.91,23.35,0.9
				C272.61,56.53,273.67,67.18,273.78,67.54z"/>
		</g>
		<g>
			<path style="fill:#B16668;" d="M230.83,194.72c-4.58-3.01-7.48-6.66-7.48-6.66c2.32,0.15,4.21,0.22,5.46-0.04
				c2.47-0.52,2.95-1.56,2.84-2.46c-0.09-0.7-1.81-0.48-4.54-1.33c-3.48-1.09-5.58-1.71-9.57-2.25c-1.46-0.2-2.82-1.31-3.9-2.65
				c-0.86-1.07-5.94-9.97-10.42-19.48l20.71-25.63c5.17-5.79,11.34-16.17,5.15-26.81c-14.23,3-14.12,2.65-42.58,44.77
				c-4.91,7.27-4.51,10.7,13,32.38c3.17,3.93,7.85,9.21,11.37,12.5c10.11,9.43,17.42,10.11,21.62,7.56
				C238.23,201.12,236.36,198.36,230.83,194.72z"/>
			<path style="fill:#27DEBF;" d="M230.64,107.05c-7.79,0.36-13.52,1.46-19.01,8.15c-5.87,7.15-19.46,26.79-19.46,26.79
				s3.64,11.23,18.28,14.99l18.44-23.68C228.89,133.31,235.63,120.11,230.64,107.05z"/>
			<path style="opacity:0.2;fill:#263238;" d="M230.64,107.05c-7.79,0.36-13.52,1.46-19.01,8.15c-5.87,7.15-19.46,26.79-19.46,26.79
				s3.64,11.23,18.28,14.99l18.44-23.68C228.89,133.31,235.63,120.11,230.64,107.05z"/>
		</g>
	</g>
</g>
<g id="Character_1">
	<g id="Character_19_">
		<path style="fill:#E6E6E6;" d="M116.32,115.7c-6.99,0.2-8.97,3-13.19,9.02c-4.22,6.02-18.55,28.82-18.55,28.82l-20.31,7.8
			l2.67,11.85c0,0,17.18-3.43,25.97-5.23c2.88-0.59,4.17-1.68,5.52-3.75c1.13-1.72,12.42-19.48,12.42-19.48L116.32,115.7z"/>
		<path style="fill:#E0E0E0;" d="M121.68,115.89c-6.61-1.65-9.53,2.04-11.73,6.08c-3.52,6.47-5.64,19.66-5.94,43.78
			c-0.19,15.51-5.59,34.26-6.55,48.97c-1.44,22.11-2.14,39.32-2.14,39.32s18.93-2.69,39.44-2.32L121.68,115.89z"/>
		<g id="XMLID_3556_">
			<path style="fill:#FFA8A7;" d="M159.78,340.82c0,0,3.96-27.14,2.31-43.05c-1.42-13.65-3.43-19.37-3.71-22.47
				c0,0-2.29-32.05-1.67-59.19c0.3-12.88-0.36-27.06-9.52-42.23l-0.33-0.6c-0.82,4.98-8.48,8.2-15.32,8.96
				c-6.59,0.73-14.8-0.59-24.61-3.91c-2.18,12.88-4.67,37.4-7.2,64.14c-1.24,13.07-1.02,24.07-1.24,32.47
				c-0.29,11.4,0.74,56.07,0.74,56.07l-0.02,1.88c-0.07,2.09-0.58,3.53-2.03,6.83c-1.47,3.35-4.11,8.12-7.52,11.56
				c-0.98,0.99-7.74,6.52-8.64,7.71c-2.93,3.2,2.85,5.24,7.21,4.81c4.6-0.46,11.76-1.96,13.87-4.68c1.4-1.81,2.63-8.28,4.07-10.12
				c4.87-6.19,6.87-8.86,6.97-10.89c0.18-3.66-1.03-5.16-1.41-7.24c0.52-4.31,9.27-26.87,9.85-39.46c0.28-6-1.05-16.64-1.05-16.64
				l7.7-43.76c1.71,12.3,4.95,40.02,6.13,48.85c1.62,12.15,7.61,32.71,11.4,48.86c1.42,6.06,2.13,8.77,2.47,12.72
				c0,0.02,0.09,1.41,0.09,1.42c0.04,1.79,0.18,20.92,0.76,24.97c1.2,8.47,8.72,7.65,10.14,0.89c1.21-5.76,0.53-23.73,0.58-25.94
				L159.78,340.82z"/>
			<path id="XMLID_3567_" style="fill:#37474F;" d="M160.03,340.7c2.11,0.11,0.45,8.23,0.82,13.5c0.4,5.65,2.11,9.83,2.48,14.47
				c0.43,5.3-0.12,7.49-2.15,11.77c-1.58,3.33-9.13,7.7-11.78,2.79c-2.68-4.98-3.07-10.45-2.58-15.7c0.51-5.42,0.97-9.38,1.22-13.51
				c0.22-3.64-2.3-12.28,0.45-12.72l0.09,1.42c0.92,2,10.24,3.66,11.47-0.08L160.03,340.7z"/>
			<g id="XMLID_3559_">
				<g id="XMLID_3561_">
					<path id="XMLID_3566_" style="fill:#263238;" d="M113.7,342.43c0.56,2.65-0.35,9.85-0.35,9.85s-1.22,2.45-5.34,3.97l-1.49-10.1
						L113.7,342.43z"/>
					<polygon id="XMLID_3564_" points="108.01,356.25 99.15,353.01 97.26,344.99 107.15,350.42 					"/>
					<path id="XMLID_3563_" style="fill:#37474F;" d="M99.47,332.76l0.02-1.88c-1.23,0.55-4.24,10.26-8.08,16.86
						c-3.51,6.03-10.17,9.23-12.39,11.83c-2.96,3.48,2.41,8.26,11.35,6.66c4.44-0.8,11.2-3.39,13.1-6.3
						c1.91-2.91,2.7-8.35,4.25-10.49c1.55-2.14,5.15-4.54,5.98-7c0.45-1.35,0.88-4.37,0.21-6.87c-0.62-2.29-1.14-5.04-1.92-4.82
						l-0.11,1.72c-0.63,1.19-2.82,2.53-7.31,2.62C102.43,335.12,100.38,334.73,99.47,332.76z"/>
				</g>
			</g>
			<path style="fill:#455A64;" d="M122.77,296.22c0.89-11.05-0.75-20.64-0.75-20.64l6.46-43.04c0,0,4.4,40.96,5.14,47.32
				c0.74,6.35,12.54,74.84,12.54,74.84c6.04,3.58,13.79,2.44,18.83-0.23c-0.02-27.7-0.86-55.46-1.87-63.13
				c-0.8-6.11-3.59-15.52-3.59-15.52s-0.64-40.41-0.61-55.75c0.03-15.34-1.12-25.6-4.04-32.5c-2.92-6.9-8.04-14.39-8.04-14.39
				s-2.25,7.57-20.01,7.58c-17.76,0.02-19.72-4.48-19.72-4.48s-5.2,18.16-6.93,45.61c-1.4,22.11-1.72,32.17-2.14,42.03
				c-0.36,8.4-0.58,18.1-0.77,35.07c-0.14,12.8-1.96,40.96-1.96,40.96s8.67,4.55,22.99-0.64
				C118.31,339.32,121.88,307.26,122.77,296.22z"/>
			<path style="fill:#37474F;" d="M128.48,232.54l-3.52-26.02c0,0-7.31-0.29-13.59-6.57c0,0,1.98,6.3,10.32,9.84l4.71,22.83
				l-3.44,36.65L128.48,232.54z"/>
		</g>
		<path id="XMLID_3242_" style="fill:#27DEBF;" d="M136.79,117.7l8.37,0.89c5.55,1.36,8.06,3.81,8.63,8.73
			c0.27,2.29,1.65,8.4-0.29,16.04c-1.76,6.92-6.44,23.88-6.44,23.88s6.07,15.25,8.95,23c-19.74,12.87-44.09,7.79-52.28,0
			c0.69-7.37,3.3-14.22,3.89-20.79c0,0-0.43-10.26-1.24-14.71c-6.24-6.81-5.45-13.33-2.65-18.59c5.17-9.7,12.98-18.23,15.5-18.22
			L136.79,117.7z"/>
		<path id="XMLID_3241_" style="opacity:0.6;fill:#FFFFFF;" d="M136.79,117.7l8.37,0.89c5.55,1.36,8.06,3.81,8.63,8.73
			c0.27,2.29,1.65,8.4-0.29,16.04c-1.76,6.92-6.44,23.88-6.44,23.88s6.07,15.25,8.95,23c-19.74,12.87-44.09,7.79-52.28,0
			c0.69-7.37,3.3-14.22,3.89-20.79c0,0-0.43-10.26-1.24-14.71c-6.24-6.81-5.45-13.33-2.65-18.59c5.17-9.7,12.98-18.23,15.5-18.22
			L136.79,117.7z"/>
		<path style="fill:#EBEBEB;" d="M121.59,111.82c-2.47,0-2.76,0.41-4.89,3.27c-1.27,1.7-9.29,14.93-9.29,14.93
			s6.38-8.39,11.19-10.94c1.96-1.04,2.98-1.18,2.98-1.18L121.59,111.82z"/>
		<path style="fill:#FAFAFA;" d="M137.26,117.7c0,0-6.89,18.12-8.46,30.41c-1.57,12.29,3.82,49.45,4.65,71.47
			c0.61,16.04,2.12,39.12,2.12,39.12s7.66,0.87,14.67-0.46c8.1-1.53,10.61-2.86,15.24-5.88c0,0-4-40.27-5.98-55.92
			c-1.86-14.74-9.78-29.26-9.78-29.26l9.52-39.41c0,0-0.47-6.65-6.72-8.5C146.58,117.51,137.26,117.7,137.26,117.7z"/>
		<path style="fill:#F5F5F5;" d="M149.45,154.53c0,0-1.29-4.69-3.08-12.7c-1.79-8.01-1.5-12.65-0.88-16.15l10.34,15.14l-6.1,26.36
			l0,0.01c0,0,6.52,11.95,9.11,25.17c0,0,0,0,0,0c-6.23-17.64-13.06-22.92-13.06-22.92L149.45,154.53z"/>
		<g>
			<path style="fill:#27DEBF;" d="M139.86,139.96c-0.03-0.76,0.07-2.4,0.2-4.48c0.65-10.15,0.94-19.33-2.49-20.07l-0.3,1.4
				c2.51,0.54,1.67,13.64,1.36,18.58c-0.13,2.12-0.24,3.79-0.2,4.64L139.86,139.96z"/>
		</g>
		<path style="fill:#FFA8A7;" d="M158.67,222.29c1.32-2.52,1.31-4.35,3.37-6.64c0.77-0.85,1.29-1.58,1.81-3.36
			c0.57-1.99,0.44-4.04,0.49-6.19l11.85,0.18c0.1,3.94,0.63,9.6-0.12,13.81c-1.89,10.63-3.98,15.16-8.45,16.4
			c-7.13,1.97-9.06-1.05-6.77-6.37c1.69-3.93,1.98-6.97,1.98-6.97c-1.2,1.36-1.74,1.99-2.57,2.53c-1.66,1.07-3.01,0.35-3.44-0.21
			C156.48,225.01,157.64,224.26,158.67,222.29z"/>
		<path style="fill:#F0F0F0;" d="M147.11,118.22c0,0,7.67-0.48,12.15,3.19c4.49,3.67,7.27,13.93,10.56,24.19
			c3.29,10.26,6.24,20.24,7.32,27.43c0.91,6.01-0.28,37.83-0.28,37.83s-6.78,0.95-13.71-2.43l-3.2-33.94l-12.85-34.86
			C147.11,139.65,143.13,129.72,147.11,118.22z"/>
		<g id="XMLID_3202_">
			<polygon style="fill:#27DEBF;" points="51.97,142.76 89.97,156.17 100.43,201.39 99.58,202.29 63.45,188.8 51.12,143.66 			"/>
			<polygon style="opacity:0.35;" points="89.12,157.07 99.58,202.29 100.43,201.39 89.97,156.17 			"/>
			<polygon id="XMLID_3240_" style="opacity:0.25;" points="51.12,143.66 89.12,157.07 99.58,202.29 63.45,188.8 			"/>
			<g id="XMLID_3238_" style="opacity:0.2;">
				<path id="XMLID_3239_" d="M69.1,179.61c-0.35,0.89-3.26,2.84-7.48,2.49l-0.71-2.61L69.1,179.61z"/>
			</g>
			<g id="XMLID_3236_" style="opacity:0.1;">
				<path id="XMLID_3237_" d="M62.56,152.93c0,0-0.14-0.68-0.31-1.52c-0.17-0.84,2.06-0.4,4.98,0.98l6.86,2.08
					c2.92,1.38,5.69,2.41,5.86,3.24l0.31,1.52L62.56,152.93z"/>
			</g>
			<g id="XMLID_3234_">
				<path id="XMLID_3235_" style="fill:#37474F;" d="M60.31,146.07c-0.11-0.52,0.76-0.42,1.97-0.09l2.19,0.75c0,0-0.89-2.2,4.29-0.8
					c5.7,1.54,5.82,4.39,5.82,4.39s0.65,0.32,2.74,1c1.89,0.61,2.1,0.99,2.26,1.52l0.28,0.96l-19.37-6.82
					C60.48,146.97,60.42,146.59,60.31,146.07z"/>
			</g>
			<g id="XMLID_3232_">
				<path id="XMLID_3233_" style="fill:#37474F;" d="M62.34,148.98c1.79,0.81,2.54,1.21,2.81,2.5c0.31,1.47,0.37,2.09,0.37,2.09
					l10.09,3.98c0,0-0.55-2.17-0.68-2.89c-0.13-0.72,1.2-0.73,2.95,0.08l-0.42-1.81l-15.69-5.83L62.34,148.98z"/>
			</g>
			<g id="XMLID_3205_">
				<path id="XMLID_3228_" style="fill:#37474F;" d="M62.04,152.95c0,0-0.14-0.68-0.31-1.52c-0.17-0.84,2.06-0.4,4.98,0.98
					l6.86,2.08c2.92,1.38,5.69,2.41,5.86,3.25l0.31,1.52L62.04,152.95z"/>
			</g>
			<g id="XMLID_3203_">
				<path id="XMLID_3204_" style="fill:#FFA8A7;" d="M55.34,159.13c0,0,1.35,4.96,1.7,6.21c0.35,1.26,6.58,4.13,9.69,4.51
					c5.96,0.74,6.64,2.03,5.2,6.27c-1.32,3.9-5.2,5.37-10.58,4.74c-2.52-0.3-6.01-2.54-7.38-6.44c-1.75-4.99-0.81-10.31-1.5-13.22
					C51.79,158.29,53.83,157.4,55.34,159.13z"/>
			</g>
		</g>
		<g id="XMLID_2870_">
			<path id="XMLID_3201_" style="fill:#455A64;" d="M151.32,73.33l-5.35,4.37c-1.23-1.38-1.02-3.48,0.45-4.69
				C147.91,71.8,150.1,71.94,151.32,73.33z"/>
			<path style="fill:#455A64;" d="M137.36,112.48c0-3.35,7.81-8.37,11.84-15.43c4.03-7.06,2.02-18.63-3.5-20.41
				c0,0-0.1-10.54-14.32-13.34c-14.22-2.8-18.69-5.95-21.21-6.39c-2.52-0.45-3.03,8.51,0.31,10.86c0,0-3.38-1.19-6.4-4.1
				c-2.07-2-2.89,8.42,1.57,12.08c0,0-3.69,2.17-3.25,7.65c0.45,5.49,4.41,7.94,7.07,8.5L137.36,112.48z"/>
			<path id="XMLID_3200_" style="fill:#FFA8A7;" d="M113.11,72.96c-3.43,1.49-6.69,6.73-6.64,21.4c0.04,12.43,3.85,15.58,5.78,16.5
				c1.93,0.92,5.68,0.46,9.34-0.11l-0.01,7.15c0,0-2.74,2.69-1.78,4.39c0.9,1.6,4.51,3.12,10.02,1.39c6.25-1.96,7.68-6.13,7.68-6.13
				l0.12-15.64c0,0,2.1,2.21,5.8-1.03c3.05-2.67,4.15-7.26,1.86-9.78c-2.29-2.52-5.24-2.72-7.9,0.09l-1.91-1.01
				c-3.4-0.4-8.43-0.97-12.07-2.82C114.01,82.58,113.04,77.36,113.11,72.96z"/>
			<path id="XMLID_3098_" style="fill:#455A64;" d="M137.36,89.17l-0.04,6.91c-1.85,0.06-3.34-1.43-3.32-3.34
				C134.01,90.83,135.51,89.23,137.36,89.17z"/>
			<g id="XMLID_3044_">
				<path id="XMLID_3094_" style="fill:#263238;" d="M112.78,90.14c0.03,0.95-0.68,1.74-1.59,1.77c-0.91,0.03-1.68-0.71-1.71-1.66
					c-0.03-0.95,0.68-1.74,1.59-1.77C111.98,88.45,112.75,89.19,112.78,90.14z"/>
			</g>
			<g id="XMLID_3027_">
				<path id="XMLID_3036_" style="fill:#263238;" d="M125.94,90.87c0.04,1.02-0.73,1.87-1.7,1.9c-0.98,0.03-1.8-0.76-1.84-1.78
					c-0.04-1.02,0.73-1.87,1.7-1.9C125.08,89.06,125.9,89.86,125.94,90.87z"/>
			</g>
			<path id="XMLID_3011_" style="fill:#F28F8F;" d="M123.25,101.05l-5.33,1.66c0.41,1.59,1.93,2.5,3.4,2.04
				C122.8,104.29,123.66,102.64,123.25,101.05z"/>
			<path id="XMLID_3010_" style="fill:#263238;" d="M108.41,87.07l4.25-1.69c-0.39-1.24-1.77-1.77-2.95-1.3
				C108.55,84.54,108.03,85.83,108.41,87.07z"/>
			<polygon id="XMLID_3009_" style="fill:#F28F8F;" points="116.81,88.79 117.02,98.98 111.55,97.76 			"/>
			<path id="XMLID_3002_" style="fill:#F28F8F;" d="M121.59,110.75c3.85-0.45,11.79-2.66,13.08-5.89c0,0-0.45,2.04-2.85,4.1
				c-2.4,2.06-10.24,4.2-10.24,4.2L121.59,110.75z"/>
		</g>
		<path style="fill:#EBEBEB;" d="M137.54,111.87c1.01-0.21,1.9,0.23,2.73,1.63c0.82,1.4,2.63,4.34,2.63,4.34s0.93,9.76,0,12.18
			c-0.81,2.1-9.73,10-9.73,10s2.33,8.77,2.41,11.64c0.08,2.87-5.53,13.8-6.16,19.38c0,0-1.77-17.57-0.94-23.87
			c1.44-10.97,6.59-25.13,9.02-29.62L137.54,111.87z"/>
		<g>
			<g>
				<path style="fill:#455A64;" d="M137.77,172.25c-1.52,0.87-3.15,1.42-4.38,1.27l0.12-0.99c0.92,0.11,2.15-0.29,3.38-0.94
					c-1.02-0.83-1.92-1.79-2.51-2.7c-1.43-2.21-3.69-17.36-2.3-20.73c1.15-2.8,4.49-8.87,7.03-8.87c0.02,0,0.04,0,0.07,0
					c2.55,0.11,5.41,6.53,6.32,9.44c1.09,3.47-2.44,18.38-4.06,20.46c-0.66,0.86-1.64,1.73-2.73,2.48c1.17,0.75,2.4,1.25,3.29,1.22
					l0.04,1c-0.04,0-0.08,0-0.12,0C140.69,173.9,139.17,173.22,137.77,172.25z M133,148.54c-1.27,3.1,0.89,17.76,2.22,19.81
					c0.58,0.9,1.54,1.88,2.6,2.7c1.13-0.72,2.16-1.61,2.82-2.46c1.5-1.94,4.89-16.36,3.89-19.55c-1.22-3.91-3.91-8.67-5.4-8.74
					c-0.01,0-0.02,0-0.03,0C137.59,140.29,134.55,144.78,133,148.54z"/>
			</g>
			<g>
				<path style="fill:#263238;" d="M131.98,172.97c-0.03,0.81,0.6,1.5,1.41,1.53c0.81,0.03,1.5-0.6,1.53-1.41
					c0.03-0.81-0.6-1.5-1.41-1.53C132.71,171.52,132.02,172.15,131.98,172.97z"/>
			</g>
			<g>
				<path style="fill:#263238;" d="M140.54,173.33c-0.03,0.81,0.6,1.5,1.41,1.53c0.81,0.03,1.5-0.6,1.53-1.41
					c0.03-0.81-0.6-1.5-1.41-1.53C141.26,171.89,140.57,172.52,140.54,173.33z"/>
			</g>
			<g>
				<g>
					<path style="fill:#27DEBF;" d="M131.83,154.73l0.84-0.06c0.18-0.01,0.31-0.17,0.3-0.35c-0.17-2.8-0.08-4.86,0.26-5.68
						c1.48-3.61,4.55-8.15,5.89-8.09c1.34,0.06,4.01,4.84,5.18,8.56c0.27,0.85,0.18,2.91-0.22,5.69c-0.03,0.18,0.09,0.35,0.27,0.38
						l0.84,0.13c0.18,0.03,0.35-0.1,0.38-0.28c0.46-3.11,0.52-5.25,0.17-6.36c-0.63-2-3.58-9.49-6.55-9.61
						c-2.97-0.13-6.55,7.08-7.34,9.02c-0.44,1.07-0.56,3.2-0.37,6.35C131.49,154.6,131.65,154.74,131.83,154.73z"/>
				</g>
			</g>
		</g>
	</g>
</g>
<g id="Icons">
	<g id="Red_Cross_2_">
		<polygon id="XMLID_31_" style="fill:#27DEBF;" points="44.35,86.61 44.35,99.03 55.11,92.82 55.11,105.25 65.87,99.03 
			65.87,86.61 76.63,80.4 76.63,67.98 65.84,74.21 65.87,61.76 55.11,67.98 55.11,80.4 		"/>
		<polygon id="XMLID_30_" style="fill:#27DEBF;" points="44.35,99.03 39.74,96.37 39.74,83.95 44.35,86.61 		"/>
		<polygon id="XMLID_29_" style="fill:#27DEBF;" points="55.11,80.4 50.5,77.74 39.74,83.95 44.35,86.61 		"/>
		<polygon id="XMLID_28_" style="fill:#27DEBF;" points="55.11,67.98 50.5,65.31 50.5,77.74 55.11,80.4 		"/>
		<polygon id="XMLID_27_" style="fill:#27DEBF;" points="65.87,61.76 61.26,59.1 50.5,65.31 55.11,67.98 		"/>
		<polygon id="XMLID_26_" style="fill:#27DEBF;" points="55.11,105.25 50.5,102.58 50.5,95.48 55.11,92.82 		"/>
		<g style="opacity:0.2;">
			<polygon id="XMLID_25_" points="44.35,99.03 39.74,96.37 39.74,83.95 44.35,86.61 			"/>
			<polygon id="XMLID_24_" points="55.11,67.98 50.5,65.31 50.5,77.74 55.11,80.4 			"/>
			<polygon id="XMLID_23_" points="55.11,105.25 50.5,102.58 50.5,95.48 55.11,92.82 			"/>
		</g>
		<polygon id="XMLID_22_" style="fill:#27DEBF;" points="76.63,67.98 72.02,65.31 65.85,68.85 65.84,74.21 		"/>
		<g style="opacity:0.5;">
			<polygon id="XMLID_21_" style="fill:#FFFFFF;" points="55.11,80.4 50.5,77.74 39.74,83.95 44.35,86.61 			"/>
			<polygon id="XMLID_20_" style="fill:#FFFFFF;" points="65.87,61.76 61.26,59.1 50.5,65.31 55.11,67.98 			"/>
			<polygon id="XMLID_19_" style="fill:#FFFFFF;" points="76.63,67.98 72.02,65.31 65.85,68.85 65.84,74.21 			"/>
		</g>
	</g>
	<g id="Pill">
		<path id="XMLID_3644_" style="fill:#F5F5F5;" d="M437.01,67.77c0,1.22,0.81,2.45,2.43,3.38c3.24,1.87,8.49,1.87,11.72,0
			c1.62-0.93,2.43-2.16,2.43-3.38v-10.9c0-4.58-3.72-8.3-8.3-8.3c-4.58,0-8.3,3.72-8.3,8.3L437.01,67.77z"/>
		<path id="XMLID_3642_" style="fill:#27DEBF;" d="M436.99,82.16c0,4.58,3.72,8.3,8.3,8.3c4.58,0,8.3-3.72,8.3-8.3V67.77
			c0,1.22-0.81,2.45-2.43,3.38c-3.24,1.87-8.49,1.87-11.72,0c-1.62-0.93-2.43-2.16-2.43-3.38L436.99,82.16z"/>
		<path id="XMLID_3640_" style="opacity:0.4;fill:#FFFFFF;" d="M448.47,86.63c-1.75,0-3.18-1.42-3.18-3.18V66.57
			c2.13,0,4.25,0.47,5.87,1.4c0.17,0.1,0.33,0.2,0.48,0.31v15.18C451.65,85.21,450.22,86.63,448.47,86.63z"/>
		<path id="XMLID_3605_" style="fill:#F5F5F5;" d="M437.01,67.77c0,1.22,0.81,2.45,2.43,3.38c3.24,1.87,8.49,1.87,11.72,0
			c1.62-0.93,2.43-2.16,2.43-3.38v-10.9c0-4.58-3.72-8.3-8.3-8.3c-4.58,0-8.3,3.72-8.3,8.3L437.01,67.77z"/>
		<path id="XMLID_3598_" style="opacity:0.1;" d="M451.16,71.15c-3.24,1.87-8.49,1.87-11.72,0c-1.62-0.93-2.43-2.16-2.43-3.38
			l0,0.68l0,0.52c0,1.22,0.81,2.45,2.43,3.38c3.24,1.87,8.49,1.87,11.72,0c1.62-0.93,2.43-2.16,2.43-3.38v-1.2
			C453.59,68.99,452.78,70.22,451.16,71.15z"/>
		<path id="XMLID_3597_" style="fill:#E0E0E0;" d="M450.17,50.17L450.17,50.17c-1.37-1-3.06-1.6-4.88-1.6c-4.58,0-8.3,3.72-8.3,8.3
			l0.02,10.9c0,1.22,0.81,2.45,2.43,3.38c0.71,0.41,1.52,0.72,2.38,0.95c0-5.07,0-13.49,0-16.73
			C441.82,50.6,447.8,48.85,450.17,50.17z"/>
		<path id="XMLID_3596_" style="fill:#FFFFFF;" d="M448.47,52.49c-1.75,0-3.18,1.42-3.18,3.18v16.89c2.13,0,4.25-0.47,5.87-1.4
			c0.17-0.1,0.33-0.2,0.48-0.31V55.67C451.65,53.91,450.22,52.49,448.47,52.49z"/>
		<path id="XMLID_1224_" style="opacity:0.1;" d="M446.33,90.39c0.16-0.02,0.31-0.04,0.47-0.07c0.11-0.02,0.22-0.04,0.33-0.07
			c0.12-0.03,0.24-0.06,0.36-0.09c0.13-0.04,0.25-0.07,0.38-0.11c0.06-0.02,0.12-0.05,0.19-0.07c0.55-0.2,1.07-0.44,1.56-0.74
			c0.01-0.01,0.03-0.02,0.04-0.02c0.18-0.11,0.35-0.22,0.51-0.35l0,0c-2.38,1.32-8.35-0.43-8.35-5.21c0-1.64,0-6.49,0-11.54
			c-0.86-0.23-1.67-0.54-2.38-0.95c-1.62-0.93-2.43-2.16-2.43-3.38l-0.02,14.39c0,4.58,3.72,8.3,8.3,8.3c0.26,0,0.52-0.02,0.77-0.04
			C446.15,90.41,446.24,90.4,446.33,90.39z"/>
	</g>
</g>
</svg>
