<?xml version="1.0" encoding="utf-8"?>
<!-- Generator: Adobe Illustrator 24.2.1, SVG Export Plug-In . SVG Version: 6.00 Build 0)  -->
<svg version="1.1" xmlns="http://www.w3.org/2000/svg" xmlns:xlink="http://www.w3.org/1999/xlink" x="0px" y="0px"
	 viewBox="0 0 445.3 400.69" style="enable-background:new 0 0 445.3 400.69;" xml:space="preserve">
<g id="Background_complete">
	<g>
		<g>
			<rect x="-26.3" y="340.22" style="fill:#E6E6E6;" width="500" height="0.25"/>
			<rect x="65.4" y="355.35" style="fill:#E6E6E6;" width="33.12" height="0.25"/>
			<rect x="35.73" y="355.35" style="fill:#E6E6E6;" width="19.19" height="0.25"/>
			<rect x="165.06" y="359.03" style="fill:#E6E6E6;" width="19.19" height="0.25"/>
			<rect x="241.12" y="364.62" style="fill:#E6E6E6;" width="43.19" height="0.25"/>
			<rect x="225.88" y="364.62" style="fill:#E6E6E6;" width="6.33" height="0.25"/>
			<rect x="333.36" y="359.03" style="fill:#E6E6E6;" width="93.68" height="0.25"/>
			<g>
				<path style="fill:#E6E6E6;" d="M210.71,295.63H17.61c-3.15,0-5.71-2.56-5.71-5.71V18.49c0-3.15,2.56-5.71,5.71-5.71h193.1
					c3.15,0,5.71,2.56,5.71,5.71v271.43C216.42,293.07,213.86,295.63,210.71,295.63z M17.61,13.03c-3.01,0-5.46,2.45-5.46,5.46
					v271.43c0,3.01,2.45,5.46,5.46,5.46h193.1c3.01,0,5.46-2.45,5.46-5.46V18.49c0-3.01-2.45-5.46-5.46-5.46H17.61z"/>
				<path style="fill:#E6E6E6;" d="M427.01,295.63h-193.1c-3.15,0-5.71-2.56-5.71-5.71V18.49c0-3.15,2.56-5.71,5.71-5.71h193.1
					c3.15,0,5.71,2.56,5.71,5.71v271.43C432.71,293.07,430.15,295.63,427.01,295.63z M233.91,13.03c-3.01,0-5.46,2.45-5.46,5.46
					v271.43c0,3.01,2.45,5.46,5.46,5.46h193.1c3.01,0,5.46-2.45,5.46-5.46V18.49c0-3.01-2.45-5.46-5.46-5.46H233.91z"/>
			</g>
		</g>
		<g>
			<rect x="219.11" y="254.8" style="fill:#E0E0E0;" width="21.99" height="87.23"/>
			<polygon style="fill:#FAFAFA;" points="236.92,342.04 241.1,342.04 241.1,330.16 232.54,330.16 			"/>
			<rect x="122.75" y="254.8" style="fill:#E0E0E0;" width="21.99" height="87.23"/>
			<rect x="141.1" y="254.8" style="fill:#FAFAFA;" width="100" height="79.94"/>
			<path style="fill:#E0E0E0;" d="M237.47,258.73v21.15h-92.75v-21.15H237.47 M237.86,258.35h-93.52v21.92h93.52V258.35
				L237.86,258.35z"/>
			<polygon style="fill:#FAFAFA;" points="145.27,342.04 141.1,342.04 141.1,330.16 149.65,330.16 			"/>
			<path style="fill:#E6E6E6;" d="M188.88,269.31c0,1.22,0.99,2.21,2.21,2.21c1.22,0,2.21-0.99,2.21-2.21
				c0-1.22-0.99-2.21-2.21-2.21C189.87,267.1,188.88,268.09,188.88,269.31z"/>
			<path style="fill:#E0E0E0;" d="M237.47,284.2v21.15h-92.75V284.2H237.47 M237.86,283.81h-93.52v21.92h93.52V283.81L237.86,283.81
				z"/>
			<path style="fill:#E6E6E6;" d="M188.88,294.78c0,1.22,0.99,2.21,2.21,2.21c1.22,0,2.21-0.99,2.21-2.21s-0.99-2.21-2.21-2.21
				C189.87,292.56,188.88,293.55,188.88,294.78z"/>
			<path style="fill:#E0E0E0;" d="M237.47,309.67v21.15h-92.75v-21.15H237.47 M237.86,309.28h-93.52v21.92h93.52V309.28
				L237.86,309.28z"/>
			<path style="fill:#E6E6E6;" d="M188.88,320.24c0,1.22,0.99,2.21,2.21,2.21c1.22,0,2.21-0.99,2.21-2.21s-0.99-2.21-2.21-2.21
				C189.87,318.03,188.88,319.02,188.88,320.24z"/>
		</g>
		<g>
			<rect x="109.32" y="204.14" style="fill:#E0E0E0;" width="21.99" height="137.9"/>
			<polygon style="fill:#FAFAFA;" points="127.13,342.04 131.31,342.04 131.31,330.16 122.75,330.16 			"/>
			<rect x="27.13" y="204.14" style="fill:#E0E0E0;" width="21.99" height="137.9"/>
			<rect x="45.48" y="204.14" style="fill:#FAFAFA;" width="85.83" height="130.61"/>
			<path style="fill:#E0E0E0;" d="M127.61,207.84v29.57H49.17v-29.57H127.61 M128.07,207.38H48.72v30.48h79.35V207.38L128.07,207.38
				z"/>
			<path style="fill:#E0E0E0;" d="M127.61,241v78.44H90.25V241H127.61 M128.07,240.55H89.79v79.35h38.27V240.55L128.07,240.55z"/>
			<path style="fill:#E0E0E0;" d="M86.54,241v78.44H49.17V241H86.54 M86.99,240.55H48.72v79.35h38.27V240.55L86.99,240.55z"/>
			<polygon style="fill:#FAFAFA;" points="49.66,342.04 45.48,342.04 45.48,330.16 54.03,330.16 			"/>
			<path style="fill:#E6E6E6;" d="M86.18,222.63c0,1.22,0.99,2.21,2.21,2.21c1.22,0,2.21-0.99,2.21-2.21c0-1.22-0.99-2.21-2.21-2.21
				C87.17,220.41,86.18,221.4,86.18,222.63z"/>
			<path style="fill:#E6E6E6;" d="M94.1,278.35c0,1.22,0.99,2.21,2.21,2.21c1.22,0,2.21-0.99,2.21-2.21c0-1.22-0.99-2.21-2.21-2.21
				C95.09,276.14,94.1,277.13,94.1,278.35z"/>
			<path style="fill:#E6E6E6;" d="M78.26,278.35c0,1.22,0.99,2.21,2.21,2.21c1.22,0,2.21-0.99,2.21-2.21c0-1.22-0.99-2.21-2.21-2.21
				C79.25,276.14,78.26,277.13,78.26,278.35z"/>
		</g>
		<path style="fill:#E0E0E0;" d="M75.77,165.69h-9.28c0,0,1.61,8.57,1.61,13.62c0,5.05-7.06,24.83,3.03,24.83
			c10.08,0,3.03-19.78,3.03-24.83C74.16,174.27,75.77,165.69,75.77,165.69z"/>
		<path style="fill:#F5F5F5;" d="M40.5,185.97V192c0,6.68,5.46,12.14,12.14,12.14h6.03c6.68,0,12.14-5.46,12.14-12.14v-6.03H40.5z"
			/>
		<path style="fill:#E0E0E0;" d="M169.36,242.09c0,6.99,7.83,12.71,17.4,12.71h8.64c9.57,0,17.4-5.72,17.4-12.71H169.36z"/>
		<g>
			<path style="fill:#E0E0E0;" d="M398.3,231.86c-5.24,4.28-12.47,12.11-19.1,23.13c-4.41,7.34-7.07,15.03-8.24,25.19
				c0.03-11.5,0.06-23.85,0.1-35.51c1.33-3,4.37-9.92,6.55-15.38c7.28-18.23,9.99-22.71,16.53-38.44
				c8.73-20.97,17.67-45.86,15.11-43.87c-5.22,4.05-25.22,41.5-27.38,46.86c-7.44,18.44-9.51,31.88-10.79,44.85
				c0.04-10.95,0.08-21.01,0.12-28.77c0.13-25.31,0.56-33.48,0.77-36c0.81-1.28,1.76-2.77,2.32-3.58
				c4.7-6.79,6.51-12.58,10.94-22.71c6.27-14.36,11.68-39.85,10.1-38.56c-6.58,5.35-11.76,16.86-18.58,31.53
				c-6.82,14.66-4.87,23.1-6.22,35.62c-0.28,2.46-0.5,11.73-0.66,24.59c-1.77-13.7-5.08-22.72-11.13-30.92
				c-7.44-10.09-14.64-16.9-19.92-20.46c-5.28-3.56,9.12,21.22,16.01,32.04c6.13,9.63,11.78,18.13,14.97,26.5
				c-0.17,17.42-0.25,39.48-0.25,60.02c-1.58-9.35-4.16-19.41-7.6-27.2c-4.14-9.36-10.5-23.72-15.56-28.6
				c-1.22-1.17,5.3,26.76,9.48,34.19c4.18,7.43,7.25,14.43,9.88,18.64c0.61,0.98,2.65,4.77,3.81,6.95
				c0.01,25.07,0.14,47.19,0.36,54.72H371c-0.07-1.94-0.09-14.7-0.06-31.58c2.61-9.16,8.57-19.62,13.5-29.16
				C389.8,255.52,403.54,227.58,398.3,231.86z"/>
			<g>
				<polygon style="fill:#F0F0F0;" points="386.14,342.04 354.79,342.04 352.43,311.31 388.5,311.31 				"/>
				<polygon style="fill:#F5F5F5;" points="390.84,314.89 350.09,314.89 348.92,304.53 392.01,304.53 				"/>
			</g>
		</g>
		<g>
			<rect x="41.9" y="33.32" style="fill:#E0E0E0;" width="56.05" height="61.55"/>
			<rect x="46.13" y="33.32" style="fill:#F5F5F5;" width="57.9" height="61.55"/>
			
				<rect x="49.15" y="40" transform="matrix(-1.836970e-16 1 -1 -1.836970e-16 139.1761 -10.9797)" style="fill:#FFFFFF;" width="51.85" height="48.2"/>
			
				<rect x="61.72" y="51.68" transform="matrix(-1.836970e-16 1 -1 -1.836970e-16 139.1761 -10.9797)" style="fill:#F5F5F5;" width="26.71" height="24.83"/>
		</g>
		<g>
			<g>
				<rect x="331.68" y="40.5" style="fill:#E0E0E0;" width="52.07" height="57.18"/>
				<rect x="335.6" y="40.5" style="fill:#F5F5F5;" width="53.78" height="57.18"/>
				
					<rect x="338.41" y="46.7" transform="matrix(-1.836970e-16 1 -1 -1.836970e-16 431.5813 -293.4075)" style="fill:#FFFFFF;" width="48.17" height="44.77"/>
			</g>
			<circle style="fill:#F5F5F5;" cx="362.49" cy="69.09" r="13.97"/>
		</g>
		<g>
			<g>
				<rect x="114.61" y="70.02" style="fill:#E0E0E0;" width="41.58" height="45.66"/>
				<rect x="117.74" y="70.02" style="fill:#F5F5F5;" width="42.95" height="45.66"/>
				
					<rect x="119.98" y="74.98" transform="matrix(-1.836970e-16 1 -1 -1.836970e-16 232.067 -46.3626)" style="fill:#FFFFFF;" width="38.46" height="35.75"/>
				<polygon style="fill:#F5F5F5;" points="139.21,83.13 129.44,100.07 148.99,100.07 				"/>
			</g>
		</g>
	</g>
</g>
<g id="Background_simple" style="display:none;">
	<g style="display:inline;">
		<path style="fill:#F5F5F5;" d="M108.15,195.57c58.54,60.35,135.47,102.2,206.78,34.62c36.76-34.84,85.34-128.93,37.4-171.99
			c-66.07-59.34-103.98,37.75-153.37,50.91c-33.86,9.02-62.32-42.96-102.85-8.25C64.07,128.3,83.82,170.48,108.15,195.57z"/>
	</g>
</g>
<g id="Shadow">
	<ellipse style="fill:#F5F5F5;" cx="223.7" cy="374.06" rx="193.89" ry="11.32"/>
</g>
<g id="Character_2">
	<g>
		<path style="fill:#E58A7B;" d="M322.94,121.26l-9.92-4.02c0,0-13.09,23.87-16.84,25.08c-5.1,1.64-15.65,6.2-21.92,7.05
			c-0.85,0.99-2.24,4.1-2.11,5.24c8.41,2.8,26.89-0.92,30.85-3.86C312.02,144.05,322.94,121.26,322.94,121.26z"/>
		<g>
			<path style="fill:#407BFF;" d="M326,115.84c1.85,6.84-8.17,20.58-8.17,20.58l-13.16-7.38c0,0,2.45-5.65,5.46-11.4
				C314.97,108.35,323.89,108.04,326,115.84z"/>
			<path style="opacity:0.2;" d="M326,115.84c1.85,6.84-8.17,20.58-8.17,20.58l-13.16-7.38c0,0,2.45-5.65,5.46-11.4
				C314.97,108.35,323.89,108.04,326,115.84z"/>
		</g>
		<path style="opacity:0.2;" d="M309.91,131.97l5.17,2.9l0.9-15.87C312.98,121.32,310.85,128.27,309.91,131.97z"/>
		<g>
			<path style="fill:#407BFF;" d="M317.36,110.69c0,0-10.22,22.74-4.26,65.08c12.13,0,34.37,0,40.27,0
				c0.64-6.18-1.48-36.34,6.19-65.46c0,0-6.82-1.39-13.38-1.7c-5.13-0.25-12.57-0.41-17.12,0
				C323.07,109.14,317.36,110.69,317.36,110.69z"/>
			<path style="opacity:0.2;" d="M317.36,110.69c0,0-10.22,22.74-4.26,65.08c12.13,0,34.37,0,40.27,0
				c0.64-6.18-1.48-36.34,6.19-65.46c0,0-6.82-1.39-13.38-1.7c-5.13-0.25-12.57-0.41-17.12,0
				C323.07,109.14,317.36,110.69,317.36,110.69z"/>
		</g>
		<path style="fill:#E8ECF1;" d="M308.02,374.97c-0.06,1.07,15.21,1.94,34.1,1.94c18.9,0,34.27-0.87,34.33-1.94
			c0.06-1.07-15.2-1.94-34.1-1.94C323.45,373.02,308.08,373.89,308.02,374.97z"/>
		
			<rect x="331.52" y="348.79" transform="matrix(0.9331 -0.3595 0.3595 0.9331 -106.052 144.4734)" style="fill:#E58A7B;" width="7.68" height="17.09"/>
		<polygon style="fill:#E58A7B;" points="366.75,367.28 359.22,367.28 356.46,349.84 363.99,349.84 		"/>
		<path style="fill:#263238;" d="M358.73,366.41l8.46,0c0.31,0,0.56,0.21,0.61,0.51l1.09,6.69c0.11,0.69-0.47,1.35-1.18,1.34
			c-2.95-0.05-4.37-0.22-8.09-0.22c-2.29,0-7.02,0.24-10.18,0.24c-3.09,0-3.39-3.12-2.08-3.41c5.88-1.27,8.16-3.02,10.12-4.69
			C357.84,366.57,358.28,366.41,358.73,366.41z"/>
		<path style="fill:#263238;" d="M333.67,363.77l8.02-2.33c0.3-0.09,0.61,0.04,0.74,0.31l2.97,6c0.31,0.62-0.06,1.4-0.75,1.59
			c-2.9,0.79-4.86,1.29-8.5,2.35c-2.51,0.73-5.07,1.92-7.55,2.71c-1.72,0.55-5.76,0.57-7.85,0.57c-3.09,0-3.78-3.26-2.46-3.41
			c3.35-0.38,3.8-0.2,5.65-1.13c3.06-1.54,5.43-2.81,8.08-5.58C332.49,364.36,333.03,363.96,333.67,363.77z"/>
		<path style="fill:#E58A7B;" d="M275.53,149.3l-8.28-3.49l-3.41,9.18c0,0,4.78,0.87,10.24,0L275.53,149.3z"/>
		<polygon style="fill:#E58A7B;" points="261.09,145.58 260.87,151.69 263.83,154.99 267.24,145.81 		"/>
		<g>
			
				<rect x="330.03" y="349.07" transform="matrix(0.9329 -0.3601 0.3601 0.9329 -104.8838 143.9315)" style="fill:#CF6F64;" width="7.68" height="8.81"/>
			<polygon style="fill:#CF6F64;" points="363.99,349.85 356.46,349.85 357.88,358.84 365.42,358.84 			"/>
		</g>
		<path style="opacity:0.2;" d="M311.82,164.31c0.14,1.81,0.32,3.66,0.53,5.56l29.94-9.72c4.68-1.4,8.74-4.34,11.52-8.35
			c0.11-2.67,0.27-5.48,0.49-8.41c0.1-1.43,0.23-2.89,0.36-4.37c0.14-1.54,0.31-3.11,0.49-4.7L311.82,164.31z"/>
		<path style="fill:#FFFFFF;" d="M321.6,131.51l-1.02-0.12c0.59-4.99,4.32-8.93,8.25-8.84l-0.03,1.03
			C325.4,123.48,322.13,127.04,321.6,131.51z"/>
		<path style="fill:#FFFFFF;" d="M326.92,140.75c-0.06,0-0.11,0-0.17,0l0.03-1.03c3.44,0.13,6.67-3.46,7.2-7.93l1.02,0.12
			C334.42,136.82,330.82,140.75,326.92,140.75z"/>
		<path style="fill:#E58A7B;" d="M345.61,89.32c-1.4,5.51-3.07,15.6,0.57,19.28c0,0-2.54,5.59-12.78,5.59
			c-9.35,0-4.34-5.59-4.34-5.59c6.23-1.47,6.34-6.02,5.52-10.3L345.61,89.32z"/>
		<path style="fill:#CF6F64;" d="M341.12,92.98l-6.53,5.31c0.2,1.01,0.34,2.04,0.35,3.04c1.91,1.9,5.74-2.91,6.13-5.37
			C341.26,94.73,341.28,93.56,341.12,92.98z"/>
		<path style="fill:#CF6F64;" d="M323.36,89.26c0.96,1.71,2.65,2.78,4.24,3.14c2.4,0.53,3.61-1.67,2.95-3.9
			c-0.6-2-2.56-4.69-4.98-4.23C323.2,84.72,322.27,87.3,323.36,89.26z"/>
		<path style="fill:#263238;" d="M327.32,71.63c-3.74,1.71-5.06,16.57-0.36,18.77C331.67,92.59,334.41,68.38,327.32,71.63z"/>
		<path style="fill:#E58A7B;" d="M346.76,81.03c-0.9,7.46-1.04,11.85-5.03,15.67c-6,5.76-15.01,2.34-16.35-5.1
			c-1.21-6.7,0.46-17.77,7.93-20.74C340.67,67.94,347.65,73.58,346.76,81.03z"/>
		<path style="fill:#263238;" d="M334.47,75.49c5.53-1.42,9.6-2.38,8.15,2.24c-1.94,6.15-4.26,12.11-1.14,12.39
			c1.89,0.17,10.3-3.4,9.23-7c-0.93-3.14,2.98-3.99,3.7-5.59c2.59-5.77-4.82-5.02-3.5-8.51c1.28-3.4-5.97-9.14-9.99-6.33
			c-6.51,4.54-17.68,4.48-11.81-2.97c4.21-5.33-3.3-4.24-3.3-4.24s4.54,2.69-3.1,6.85C314.61,66.74,322.02,78.67,334.47,75.49z"/>
		<path style="fill:#E58A7B;" d="M349.64,89.26c-1.16,1.71-2.97,2.78-4.61,3.14c-2.46,0.53-3.41-1.67-2.49-3.9
			c0.83-2,3.11-4.69,5.47-4.23C350.34,84.72,350.97,87.3,349.64,89.26z"/>
		<path style="fill:#407BFF;" d="M313.1,175.77c0,0-6.76,60.5-7.29,83.46c-0.55,23.88,22.91,98.39,22.91,98.39l12.01-5.04
			c0,0-13.98-68.07-12.04-91.53c2.12-25.57,10.88-85.28,10.88-85.28H313.1z"/>
		<path style="opacity:0.2;" d="M329.9,192.38c-5.38,11.18-1.76,33.28,1.16,46.39c1.11-9.25,2.43-19.29,3.68-28.58
			C334.61,195.9,333.5,184.88,329.9,192.38z"/>
		<path style="fill:#407BFF;" d="M340.19,348.65c0.06-0.02,1.42,3.83,1.42,3.83l-13.84,5.81l-2.18-4.06L340.19,348.65z"/>
		<path style="fill:#407BFF;" d="M327.38,175.77c0,0,5.17,57.54,8.6,79.09c3.75,23.61,18.5,102.24,18.5,102.24h13.79
			c0,0-8.26-76.72-9.82-100.1c-1.69-25.37-5.07-81.23-5.07-81.23H327.38z"/>
		<path style="fill:#407BFF;" d="M368.48,353.5c0.06,0,0.46,3.85,0.46,3.85h-15.16l-1.08-4.42L368.48,353.5z"/>
		<path style="opacity:0.2;" d="M363.19,348.95c-0.07,0-0.12-0.05-0.13-0.11c-0.08-0.7-7.53-69.97-8.93-90.96
			c-1.52-22.79-4.58-73.31-4.61-73.82c0-0.07,0.05-0.13,0.12-0.14c0,0,0.01,0,0.01,0c0.07,0,0.12,0.05,0.13,0.12
			c0.03,0.51,3.09,51.03,4.61,73.82c1.4,20.99,8.85,90.26,8.93,90.95c0.01,0.07-0.04,0.13-0.11,0.14
			C363.2,348.95,363.2,348.95,363.19,348.95z"/>
		<path style="fill:#263238;" d="M335.32,83.12c-0.04,0.61-0.39,1.1-0.78,1.1c-0.4,0-0.69-0.49-0.65-1.1
			c0.04-0.61,0.39-1.1,0.78-1.1C335.06,82.02,335.36,82.51,335.32,83.12z"/>
		<path style="fill:#263238;" d="M328.46,83.12c-0.04,0.61-0.39,1.1-0.78,1.1c-0.4,0-0.69-0.49-0.65-1.1
			c0.04-0.61,0.39-1.1,0.78-1.1C328.2,82.02,328.49,82.51,328.46,83.12z"/>
		<path style="fill:#DF5753;" d="M330.62,83.42c0,0-1.59,3.5-3.21,5.19c1.02,1,2.87,0.54,2.87,0.54L330.62,83.42z"/>
		<path style="fill:#263238;" d="M330.8,91.71c-0.1,0-0.17-0.08-0.17-0.18c0.01-0.1,0.09-0.18,0.19-0.18c2.67,0,4.02-1.86,4.03-1.88
			c0.06-0.08,0.17-0.11,0.25-0.05c0.08,0.05,0.1,0.16,0.04,0.25C335.08,89.75,333.65,91.71,330.8,91.71z"/>
		<path style="fill:#263238;" d="M336.54,81.27c-0.1,0.04-0.22,0.03-0.31-0.03c-1.31-0.83-2.54-0.27-2.55-0.27
			c-0.17,0.09-0.39,0.01-0.47-0.17c-0.07-0.18,0.01-0.39,0.2-0.48c0.06-0.03,1.6-0.73,3.22,0.3c0.16,0.1,0.2,0.32,0.09,0.49
			C336.68,81.19,336.61,81.24,336.54,81.27z"/>
		<path style="fill:#263238;" d="M325.8,79.28c-0.05-0.01-0.1-0.04-0.14-0.08c-0.14-0.13-0.14-0.36,0-0.5
			c1.4-1.48,3.01-1.25,3.08-1.24c0.19,0.02,0.32,0.21,0.28,0.41c-0.04,0.19-0.23,0.33-0.42,0.3l0,0c-0.05-0.01-1.32-0.17-2.43,1.01
			C326.07,79.28,325.93,79.31,325.8,79.28z"/>
		<path style="fill:#E58A7B;" d="M363.43,120.14l-10.4-2.77c0,0-10.2,25.11-13.8,26.75c-4.9,2.23-17.32,9.95-22.59,13.67
			c-0.29,1.24-0.06,4.56,0.6,5.46c8.97-1.63,26.23-8.27,29.83-11.64C355.26,143.92,363.43,120.14,363.43,120.14z"/>
		<path style="fill:#407BFF;" d="M356.17,367.72c-0.57,0-1.1-0.1-1.43-0.38c-0.26-0.23-0.36-0.54-0.31-0.94
			c0.04-0.3,0.2-0.44,0.33-0.5c0.85-0.43,3.2,1.06,3.46,1.24c0.06,0.04,0.09,0.11,0.07,0.18c-0.02,0.07-0.07,0.13-0.14,0.14
			C357.62,367.58,356.86,367.72,356.17,367.72z M355.14,366.17c-0.09,0-0.17,0.01-0.23,0.04c-0.05,0.03-0.11,0.07-0.12,0.21
			c-0.03,0.28,0.03,0.5,0.2,0.65c0.39,0.35,1.37,0.39,2.66,0.14C356.83,366.71,355.72,366.17,355.14,366.17z"/>
		<path style="fill:#407BFF;" d="M358.11,367.46c-0.03,0-0.06-0.01-0.08-0.02c-0.75-0.42-2.16-2.07-1.96-2.91
			c0.04-0.15,0.17-0.42,0.6-0.47c0.28-0.03,0.53,0.04,0.75,0.23c0.83,0.71,0.89,2.89,0.89,2.98c0,0.07-0.03,0.13-0.09,0.16
			C358.18,367.45,358.15,367.46,358.11,367.46z M356.77,364.41c-0.03,0-0.05,0-0.08,0.01c-0.23,0.03-0.26,0.14-0.27,0.18
			c-0.12,0.5,0.76,1.74,1.5,2.33c-0.05-0.64-0.22-1.9-0.75-2.36C357.05,364.46,356.92,364.41,356.77,364.41z"/>
		<path style="fill:#407BFF;" d="M329.61,366.48c-0.74,0.18-1.44,0.23-1.89-0.01c-0.29-0.15-0.45-0.41-0.49-0.76
			c-0.02-0.21,0.05-0.39,0.2-0.53c0.81-0.72,4.07,0.05,4.44,0.14c0.07,0.02,0.12,0.08,0.13,0.16c0,0.08-0.04,0.15-0.11,0.18
			C331.29,365.93,330.43,366.28,329.61,366.48z M327.99,365.29c-0.14,0.03-0.24,0.08-0.32,0.14c-0.06,0.06-0.09,0.12-0.08,0.21
			c0.03,0.24,0.13,0.4,0.32,0.51c0.53,0.29,1.76,0.06,3.35-0.6C330.15,365.31,328.69,365.12,327.99,365.29z"/>
		<path style="fill:#407BFF;" d="M331.86,365.66c-0.02,0.01-0.05,0.01-0.07,0c-0.97-0.18-3.04-1.33-3.06-2.19
			c0-0.2,0.09-0.48,0.56-0.64c0.34-0.13,0.7-0.1,1.03,0.06c1.09,0.54,1.65,2.46,1.68,2.54c0.02,0.06,0,0.13-0.04,0.17
			C331.93,365.64,331.9,365.66,331.86,365.66z M329.5,363.14c-0.03,0.01-0.07,0.02-0.1,0.03c-0.31,0.11-0.31,0.24-0.31,0.28
			c0.01,0.52,1.45,1.47,2.46,1.79c-0.2-0.55-0.69-1.67-1.4-2.02C329.93,363.11,329.72,363.08,329.5,363.14z"/>
		<path style="fill:#E58A7B;" d="M317.47,157.2l-10.43,4.8l-1.21,2.94l3.85,2.59c0,0,7.19-0.78,9.24-5.4L317.47,157.2z"/>
		<path style="fill:#263238;" d="M317.92,163.42c-0.65-3.87-1.93-5.64-1.94-5.66l1.64-1.23c0.06,0.08,1.58,2.13,2.32,6.55
			L317.92,163.42z"/>
		<path style="fill:#263238;" d="M319.69,158.62c0.34,0.84-0.21,1.85-1.21,2.25c-1.01,0.41-2.1,0.06-2.44-0.78
			c-0.34-0.84,0.21-1.85,1.21-2.25C318.26,157.43,319.36,157.78,319.69,158.62z"/>
		<polygon style="fill:#E58A7B;" points="300,165.87 301.39,167.28 310.74,163.28 307.05,162 		"/>
		<path style="opacity:0.2;" d="M340.19,348.65c0.06-0.02,1.42,3.83,1.42,3.83l-13.84,5.81l-2.18-4.06L340.19,348.65z"/>
		<path style="opacity:0.2;" d="M368.48,353.5c0.06,0,0.46,3.85,0.46,3.85h-15.16l-1.08-4.42L368.48,353.5z"/>
		<g>
			<path style="fill:#407BFF;" d="M366.14,117.27c2.75,8.87-7.96,20.98-7.96,20.98l-14.85-6.06c0,0,2.09-6.44,6.07-15.07
				C353.93,107.3,363.36,108.32,366.14,117.27z"/>
			<path style="opacity:0.2;" d="M366.14,117.27c2.75,8.87-7.96,20.98-7.96,20.98l-14.85-6.06c0,0,2.09-6.44,6.07-15.07
				C353.93,107.3,363.36,108.32,366.14,117.27z"/>
		</g>
	</g>
</g>
<g id="Screen">
	<g>
		<rect x="212.18" y="28.4" style="fill:#407BFF;" width="6.39" height="1.03"/>
		
			<rect x="292.83" y="77.25" transform="matrix(0.045 -0.999 0.999 0.045 210.1758 375.3818)" style="fill:#407BFF;" width="17.18" height="1.03"/>
		<polygon style="fill:#407BFF;" points="299.31,33.02 181.31,33.02 170.33,278.74 288.32,278.74 		"/>
		<polygon style="opacity:0.56;fill:#FAFAFA;" points="295.79,36.39 177.79,36.39 166.8,282.11 284.8,282.11 		"/>
		<polygon style="opacity:0.07;fill:#407BFF;" points="292.26,39.76 174.26,39.76 163.28,285.48 281.28,285.48 		"/>
		<polygon style="fill:#FFFFFF;" points="278.83,146.93 178.11,146.93 177.27,165.74 277.99,165.74 		"/>
		<polygon style="fill:#407BFF;" points="233.51,133.22 178.73,133.22 178.35,141.63 233.13,141.63 		"/>
		<polygon style="fill:#FFFFFF;" points="276.56,197.68 175.85,197.68 175.01,216.48 275.72,216.48 		"/>
		<polygon style="opacity:0.47;fill:#407BFF;" points="258.09,241.86 190.37,241.86 189.36,264.4 257.09,264.4 		"/>
		<path style="fill:#FFFFFF;" d="M253.56,267.89h-67.73c-0.03,0-0.06-0.01-0.09-0.04c-0.02-0.02-0.03-0.06-0.03-0.09l1.01-22.54
			c0-0.06,0.06-0.11,0.12-0.11h67.73c0.03,0,0.06,0.01,0.09,0.04c0.02,0.02,0.03,0.06,0.03,0.09l-1.01,22.54
			C253.68,267.84,253.63,267.89,253.56,267.89z M185.96,267.65h67.49l1-22.3h-67.49L185.96,267.65z"/>
		<polygon style="fill:#407BFF;" points="221.67,183.96 176.46,183.96 176.08,192.37 221.3,192.37 		"/>
		<path style="fill:#FFFFFF;" d="M256.8,86.21c-0.25,5.63-2.29,10.83-5.56,15.05c-4.94,6.4-12.68,10.56-21.2,10.56
			c-8.52,0-15.88-4.16-20.24-10.56c-2.89-4.22-4.47-9.42-4.22-15.05c0.63-14.15,12.61-25.62,26.75-25.62
			C246.48,60.59,257.43,72.05,256.8,86.21z"/>
		<path style="fill:#407BFF;" d="M259.21,65.95c-0.07,1.5-0.61,2.88-1.48,4c-1.31,1.7-3.37,2.81-5.63,2.81
			c-2.26,0-4.22-1.11-5.38-2.81c-0.77-1.12-1.19-2.5-1.12-4c0.17-3.76,3.35-6.81,7.11-6.81C256.47,59.14,259.38,62.19,259.21,65.95z
			"/>
		<path style="fill:#263238;" d="M188.96,156.33c-0.07,1.66-1.48,3.01-3.15,3.01c-1.66,0-2.95-1.35-2.88-3.01
			c0.07-1.66,1.48-3.01,3.15-3.01C187.75,153.32,189.04,154.67,188.96,156.33z"/>
		<path style="fill:#263238;" d="M202.45,156.33c-0.07,1.66-1.48,3.01-3.15,3.01c-1.66,0-2.95-1.35-2.88-3.01
			c0.07-1.66,1.48-3.01,3.15-3.01S202.52,154.67,202.45,156.33z"/>
		<path style="fill:#263238;" d="M215.94,156.33c-0.07,1.66-1.48,3.01-3.15,3.01c-1.66,0-2.95-1.35-2.88-3.01
			c0.07-1.66,1.48-3.01,3.15-3.01C214.72,153.32,216.01,154.67,215.94,156.33z"/>
		<path style="fill:#263238;" d="M186.69,207.08c-0.07,1.66-1.48,3.01-3.15,3.01c-1.66,0-2.95-1.35-2.88-3.01
			c0.07-1.66,1.48-3.01,3.15-3.01C185.48,204.07,186.77,205.41,186.69,207.08z"/>
		<path style="fill:#263238;" d="M200.18,207.08c-0.07,1.66-1.48,3.01-3.15,3.01c-1.66,0-2.95-1.35-2.88-3.01
			c0.07-1.66,1.48-3.01,3.15-3.01C198.97,204.07,200.25,205.41,200.18,207.08z"/>
		<path style="fill:#263238;" d="M213.67,207.08c-0.07,1.66-1.48,3.01-3.15,3.01c-1.66,0-2.95-1.35-2.88-3.01
			c0.07-1.66,1.48-3.01,3.15-3.01S213.74,205.41,213.67,207.08z"/>
		<path style="fill:#263238;" d="M227.15,207.08c-0.07,1.66-1.48,3.01-3.15,3.01c-1.66,0-2.95-1.35-2.88-3.01
			c0.07-1.66,1.48-3.01,3.15-3.01C225.94,204.07,227.23,205.41,227.15,207.08z"/>
		<path style="fill:#263238;" d="M240.64,207.08c-0.07,1.66-1.48,3.01-3.15,3.01s-2.95-1.35-2.88-3.01
			c0.07-1.66,1.48-3.01,3.15-3.01C239.43,204.07,240.72,205.41,240.64,207.08z"/>
		<g>
			
				<ellipse transform="matrix(0.715 -0.6991 0.6991 0.715 11.7131 184.0188)" style="fill:#407BFF;" cx="231.57" cy="77.64" rx="10.6" ry="10.13"/>
			<path style="fill:#407BFF;" d="M251.24,101.26c-4.94,6.4-12.68,10.56-21.2,10.56c-8.52,0-15.88-4.16-20.24-10.56
				c4.86-4.84,12.55-7.98,21.07-7.98C239.4,93.28,246.81,96.42,251.24,101.26z"/>
			
				<ellipse transform="matrix(0.715 -0.6991 0.6991 0.715 11.7131 184.0188)" style="opacity:0.1;fill:#FFFFFF;" cx="231.57" cy="77.64" rx="10.6" ry="10.13"/>
			<path style="opacity:0.1;fill:#FFFFFF;" d="M251.24,101.26c-4.94,6.4-12.68,10.56-21.2,10.56c-8.52,0-15.88-4.16-20.24-10.56
				c4.86-4.84,12.55-7.98,21.07-7.98C239.4,93.28,246.81,96.42,251.24,101.26z"/>
		</g>
	</g>
</g>
<g id="Character_1">
	<g>
		<g>
			<path style="fill:#E58A7B;" d="M104.1,170.27c-0.95,2.08-1.94,4.36-2.82,6.59c-0.88,2.25-1.76,4.5-2.53,6.79
				c-1.49,4.57-2.89,9.18-3.57,13.8l-0.23,1.47c-0.02,0.18,0,0.43,0.07,0.75c0.15,0.64,0.54,1.49,1.1,2.32
				c1.13,1.69,2.72,3.4,4.44,4.98c1.72,1.61,3.58,3.15,5.52,4.62c1.92,1.48,3.94,2.92,5.92,4.27l-1.86,3.51
				c-4.76-2.08-9.19-4.57-13.48-7.69c-2.11-1.61-4.19-3.34-6.04-5.68c-0.91-1.18-1.8-2.51-2.39-4.27c-0.28-0.88-0.48-1.87-0.48-2.94
				c0.01-0.25,0.02-0.59,0.04-0.76l0.05-0.5l0.1-0.99c0.54-5.3,1.72-10.4,3.27-15.34c0.78-2.47,1.61-4.91,2.56-7.31
				c0.97-2.41,1.93-4.73,3.14-7.16L104.1,170.27z"/>
			<path style="fill:#E58A7B;" d="M110.61,215.26l7.07-3.58l-1.83,7.77c0,0-4.85,1.36-7.11-1L110.61,215.26z"/>
			<polygon style="fill:#E58A7B;" points="124.15,212.95 122.27,219.37 115.85,219.44 117.68,211.67 			"/>
			<path style="fill:#DF5753;" d="M134.13,132.83c0,0,0.61,2.25,1.59,3.95c-0.84,0.78-1.59,0.51-1.59,0.51V132.83z"/>
			<ellipse style="fill:#263238;" cx="133.92" cy="131.74" rx="0.75" ry="1.15"/>
			<path style="fill:#263238;" d="M133.74,130.63l1.52-0.44C135.26,130.19,134.48,131.38,133.74,130.63z"/>
			<path style="fill:#E58A7B;" d="M114.59,140.16c0.91,4.66,1.82,13.19-1.43,16.29c0,0,1.27,4.72,9.92,4.72
				c9.51,0,4.55-4.72,4.55-4.72c-5.19-1.24-5.06-5.09-4.15-8.71L114.59,140.16z"/>
			<path style="fill:#E58A7B;" d="M112.07,129.57c0.48,7.77,0.51,11.07,4.44,15.06c5.9,6,15.35,3.71,17.2-4.04
				c1.67-6.98,0.61-18.52-7-21.61C119.21,115.93,111.59,121.8,112.07,129.57z"/>
			<path style="fill:#263238;" d="M112.83,120.77c-3.9,1.42-9.1,0.36-7.06,12.39c2.16,12.74-1.17,16.93-1.17,16.93
				s14.79,3.15,29.89-0.19c0,0-4.61-8.06-3.32-13.94c1.65-7.5,0.34-10.28,0.34-10.28S118.32,118.78,112.83,120.77z"/>
			<path style="fill:#E58A7B;" d="M129.34,133.62c-0.02,1.54,0.52,3.09,1.22,4.17c1.05,1.62,2.3,0.96,2.62-0.72
				c0.28-1.51,0.07-4.18-1.28-5.22C130.57,130.83,129.35,131.86,129.34,133.62z"/>
			<path style="fill:#263238;" d="M109.45,122.14c-1.13-3.14,4.22-7.98,15.52-5.97c11.3,2.01,11.79,11.41,11.79,11.41l-2.29-2.71
				l0.1,2.86l-11.61,2.23L109.45,122.14z"/>
			<g>
				<path style="fill:#407BFF;" d="M110.41,156.98L110.41,156.98c-0.16-0.96,0.49-1.87,1.45-2.02c3.52-0.58,11.51-1.76,15.54-1.2
					c2.99,0.41,3.78,2.16,3.91,3.59c0.09,1.06-0.78,1.95-1.84,1.9l-17.39-0.79C111.24,158.43,110.54,157.81,110.41,156.98z"/>
				<path style="opacity:0.6;" d="M110.41,156.98L110.41,156.98c-0.16-0.96,0.49-1.87,1.45-2.02c3.52-0.58,11.51-1.76,15.54-1.2
					c2.99,0.41,3.78,2.16,3.91,3.59c0.09,1.06-0.78,1.95-1.84,1.9l-17.39-0.79C111.24,158.43,110.54,157.81,110.41,156.98z"/>
			</g>
			<polygon style="fill:#E58A7B;" points="120.46,331.69 126.9,336.16 137.69,321.54 131.25,317.06 			"/>
			<polygon style="fill:#E58A7B;" points="105.41,331.39 112.23,335.27 121.78,319.81 114.96,315.92 			"/>
			<g>
				<polygon style="fill:#CF6F64;" points="137.69,321.54 132.13,329.08 125.68,324.6 131.24,317.06 				"/>
				<polygon style="fill:#CF6F64;" points="114.96,315.93 121.78,319.81 116.85,327.78 110.03,323.9 				"/>
			</g>
			<g>
				<path style="fill:#407BFF;" d="M125.89,205.81c0,0,25.18,31.74,20.46,62.08c-3.82,24.51-25.91,57.7-25.91,57.7l-10.39-5.16
					c0,0,11.29-22.06,18.7-45.44c3.11-9.81,1.78-20.61-4.03-29.1c-12.76-18.63-33.19-7.55-19.44-40.08H125.89z"/>
				<path style="opacity:0.6;" d="M125.89,205.81c0,0,25.18,31.74,20.46,62.08c-3.82,24.51-25.91,57.7-25.91,57.7l-10.39-5.16
					c0,0,11.29-22.06,18.7-45.44c3.11-9.81,1.78-20.61-4.03-29.1c-12.76-18.63-33.19-7.55-19.44-40.08H125.89z"/>
			</g>
			<path style="opacity:0.4;" d="M138.25,226.21l-3.66-3.64c0,0.29,7.09,44.05,9.08,56.35c1.2-3.77,2.13-7.49,2.68-11.03
				C148.67,253.04,143.8,237.84,138.25,226.21z"/>
			<g>
				<path style="fill:#407BFF;" d="M137.14,205.81c0,0,30.32,39.88,31.17,63.8c0.71,20.04-33.03,58.75-33.03,58.75l-9.8-6.34
					c0,0,19.73-27.52,24.7-50.01c-1.89-22.26-42.54-66.19-42.54-66.19H137.14z"/>
				<path style="opacity:0.6;" d="M137.14,205.81c0,0,30.32,39.88,31.17,63.8c0.71,20.04-33.03,58.75-33.03,58.75l-9.8-6.34
					c0,0,19.73-27.52,24.7-50.01c-1.89-22.26-42.54-66.19-42.54-66.19H137.14z"/>
			</g>
			<path style="fill:#407BFF;" d="M99.63,158.24c-3.25,0.77-6.35,12.55-6.35,12.55l12.66,8.45c0,0,4.22-9.32,2.75-13.4
				C107.15,161.6,103.73,157.27,99.63,158.24z"/>
			<path style="opacity:0.2;" d="M102.11,165.82l-0.88,10.27l4.71,3.16c0,0,2.21-4.88,2.87-9.14L102.11,165.82z"/>
			<path style="fill:#407BFF;" d="M140.89,158.46c0,0,3.74,1.32-3.75,47.35c-12.64,0-25.71,0-31.86,0
				c0.53-12.97,0.55-20.96-5.65-47.58c0,0,6.68-1.45,13.53-1.78c5.36-0.26,9.75-0.43,14.47,0
				C133.84,157.02,140.89,158.46,140.89,158.46z"/>
			<path style="fill:#E58A7B;" d="M144.13,165.77c0.72,2,1.49,4.15,2.28,6.23c0.76,2.1,1.56,4.2,2.37,6.29l2.45,6.28l0.62,1.57
				l0.31,0.78l0.16,0.39c0.03,0.07,0.02,0.06,0.01,0.06c-0.04-0.02-0.08-0.22-0.7-0.62c-0.3-0.19-0.81-0.37-1.31-0.38
				c-0.49-0.02-0.89,0.1-1.11,0.2c-0.45,0.22-0.46,0.31-0.45,0.29c0.03-0.01,0.12-0.1,0.22-0.23c0.44-0.52,0.96-1.43,1.43-2.33
				c0.47-0.92,0.92-1.9,1.37-2.89c0.88-1.99,1.69-4.07,2.51-6.16c0.81-2.09,1.57-4.21,2.33-6.34l2.28-6.38l3.85,0.97
				c-0.76,4.57-1.75,9.04-2.92,13.52c-0.57,2.25-1.24,4.48-2,6.73c-0.38,1.13-0.8,2.25-1.29,3.4c-0.51,1.16-1.01,2.29-1.9,3.62
				c-0.23,0.34-0.5,0.69-0.87,1.08c-0.39,0.38-0.85,0.85-1.82,1.29c-0.49,0.21-1.16,0.39-1.94,0.36c-0.78-0.02-1.56-0.3-2.11-0.64
				c-1.11-0.71-1.49-1.38-1.82-1.89c-0.15-0.25-0.28-0.52-0.37-0.7l-0.19-0.39l-0.38-0.78l-0.76-1.55
				c-0.99-2.08-1.96-4.17-2.87-6.29c-0.91-2.12-1.79-4.25-2.65-6.4c-0.82-2.18-1.63-4.29-2.36-6.61L144.13,165.77z"/>
			<path style="fill:#407BFF;" d="M140.89,158.46c3.83,0.91,8.13,12.23,8.13,12.23l-11.38,9.7c0,0-7.38-12.34-5.88-16.41
				C133.31,159.73,135.89,157.27,140.89,158.46z"/>
			<path style="fill:#E58A7B;" d="M160.67,159.02l3.99-3.34l2.78,4.33l-2.05,3.62c0,0-3.26,2.98-6.15,1.47l0,0
				C158.32,162.97,158.9,160.5,160.67,159.02z"/>
			<polygon style="fill:#E58A7B;" points="171.92,155.68 171.62,156.77 165.29,157.84 164.67,155.67 			"/>
			<polygon style="fill:#407BFF;" points="136.1,328.88 124.68,321.49 126.72,317.94 139.56,325.83 			"/>
			<path style="fill:#263238;" d="M116.68,334.75c-0.91,0-2.1-0.58-2.83-0.98c-0.07-0.04-0.1-0.11-0.09-0.18
				c0.01-0.07,0.06-0.14,0.13-0.16c0.31-0.1,3.02-0.93,3.78-0.28c0.12,0.1,0.26,0.29,0.21,0.6c-0.06,0.42-0.25,0.71-0.56,0.87
				C117.14,334.71,116.92,334.75,116.68,334.75z M114.43,333.66c1.24,0.63,2.24,0.87,2.72,0.63c0.2-0.1,0.32-0.29,0.36-0.58
				c0.02-0.16-0.03-0.23-0.09-0.27C117.03,333.1,115.53,333.36,114.43,333.66z"/>
			<path style="fill:#263238;" d="M113.94,333.8c-0.05,0-0.1-0.02-0.13-0.06c-0.05-0.05-0.06-0.12-0.05-0.18
				c0.03-0.09,0.65-2.26,1.68-2.76c0.27-0.13,0.55-0.14,0.82-0.03c0.43,0.18,0.47,0.5,0.46,0.67c-0.07,0.9-1.9,2.14-2.74,2.35
				C113.97,333.79,113.96,333.8,113.94,333.8z M115.88,331.07c-0.09,0-0.18,0.02-0.28,0.07c-0.61,0.3-1.13,1.47-1.37,2.18
				c0.88-0.37,2.08-1.35,2.12-1.9c0.01-0.09-0.01-0.2-0.23-0.3C116.04,331.09,115.96,331.07,115.88,331.07z"/>
			<path style="fill:#263238;" d="M130.96,339.07c-1.13,0-2.7-1.45-3.56-2.34c-0.06-0.06-0.07-0.14-0.03-0.21
				c0.04-0.07,0.13-0.11,0.19-0.1c0.4,0.05,3.87,0.52,4.37,1.5c0.09,0.19,0.09,0.39-0.02,0.59c-0.18,0.32-0.45,0.51-0.79,0.55
				C131.07,339.07,131.02,339.07,130.96,339.07z M128.07,336.87c1.26,1.23,2.37,1.91,3,1.82c0.22-0.03,0.39-0.15,0.51-0.37
				c0.05-0.08,0.05-0.16,0.01-0.23C131.33,337.56,129.47,337.1,128.07,336.87z"/>
			<path style="fill:#263238;" d="M128.18,336.84c-0.26,0-0.49-0.02-0.67-0.05c-0.06-0.01-0.12-0.06-0.14-0.12
				c-0.02-0.06-0.01-0.13,0.03-0.18c0.06-0.07,1.41-1.7,2.69-1.81c0.4-0.03,0.74,0.08,1.03,0.32c0.39,0.34,0.37,0.64,0.27,0.83
				C131.07,336.49,129.35,336.84,128.18,336.84z M127.92,336.46c1.12,0.06,2.9-0.31,3.14-0.8c0.02-0.04,0.08-0.16-0.18-0.39
				c-0.22-0.18-0.47-0.26-0.75-0.24C129.28,335.12,128.34,336.01,127.92,336.46z"/>
			<path style="fill:#407BFF;" d="M114.22,332.74l-8.48-2.4c-0.31-0.09-0.62,0.06-0.75,0.35l-2.86,6.44
				c-0.3,0.67,0.12,1.5,0.83,1.68c2.97,0.79,4.45,1.01,8.18,2.07c2.29,0.65,5.58,1.83,8.75,2.73c3.1,0.88,4.22-2.19,2.98-2.85
				c-5.56-2.94-6-4.96-7.52-7.2C115.07,333.16,114.67,332.87,114.22,332.74z"/>
			<path style="fill:#407BFF;" d="M127.64,335.57l-7.24-5.03c-0.26-0.18-0.6-0.15-0.82,0.08l-4.8,5.16
				c-0.5,0.53-0.38,1.45,0.24,1.86c2.55,1.71,3.87,2.41,7.06,4.62c1.96,1.36,5.87,4.38,8.57,6.25c2.65,1.84,4.71-0.7,3.75-1.72
				c-4.3-4.59-5.24-7.47-5.95-10.08C128.31,336.24,128.03,335.84,127.64,335.57z"/>
			<polygon style="fill:#407BFF;" points="121.77,326.26 108.71,319.77 110.07,316.24 124,323.07 			"/>
			<g>
				<path style="fill:#407BFF;" d="M104.8,203.94l-1.1,2.85c-0.11,0.22,0.15,0.45,0.52,0.45h33.08c0.29,0,0.53-0.14,0.54-0.32
					l0.29-2.85c0.02-0.2-0.23-0.36-0.54-0.36h-32.27C105.08,203.71,104.87,203.8,104.8,203.94z"/>
				<path style="opacity:0.4;fill:#FFFFFF;" d="M104.8,203.94l-1.1,2.85c-0.11,0.22,0.15,0.45,0.52,0.45h33.08
					c0.29,0,0.53-0.14,0.54-0.32l0.29-2.85c0.02-0.2-0.23-0.36-0.54-0.36h-32.27C105.08,203.71,104.87,203.8,104.8,203.94z"/>
			</g>
			<g>
				<path style="fill:#407BFF;" d="M110,207.55h-0.86c-0.17,0-0.3-0.09-0.29-0.2l0.41-3.71c0.01-0.11,0.16-0.2,0.33-0.2h0.86
					c0.17,0,0.3,0.09,0.29,0.2l-0.41,3.71C110.33,207.46,110.18,207.55,110,207.55z"/>
				<path style="fill:#407BFF;" d="M130.41,207.55h-0.86c-0.17,0-0.3-0.09-0.29-0.2l0.41-3.71c0.01-0.11,0.16-0.2,0.33-0.2h0.86
					c0.17,0,0.3,0.09,0.29,0.2l-0.41,3.71C130.73,207.46,130.58,207.55,130.41,207.55z"/>
			</g>
		</g>
		<g>
			<g>
				<ellipse style="fill:#F5F5F5;" cx="109.24" cy="374.97" rx="26.79" ry="1.94"/>
				<path style="fill:#E0E0E0;" d="M125.57,372.23c-4.74-1.38-9.96-3.15-13.18-5.03c-0.09-0.05-0.18-0.09-0.28-0.14v-21.43h9.53
					c1.58,0,2.85-1.28,2.85-2.85c0-1.58-1.28-2.85-2.85-2.85h-9.53v-97.82h-5.71v97.82h-9.53c-1.58,0-2.85,1.28-2.85,2.85
					c0,1.58,1.28,2.85,2.85,2.85h9.53v21.43c-0.09,0.05-0.19,0.09-0.28,0.14c-3.23,1.89-8.44,3.66-13.18,5.03
					c-1.56,0.45-1.23,2.74,0.39,2.74h15.92h15.92C126.8,374.97,127.12,372.68,125.57,372.23z"/>
			</g>
			<g>
				<path style="fill:#407BFF;" d="M127.04,253.07H91.47c-2.85,0-5.18-2.33-5.18-5.18v-10.57c0-2.85,2.33-5.18,5.18-5.18h35.56
					c2.85,0,5.18,2.33,5.18,5.18v10.57C132.22,250.74,129.88,253.07,127.04,253.07z"/>
				<g>
					<path style="fill:#407BFF;" d="M91.14,253.07v1.82c0,1.5,1.63,2.73,3.63,2.73h28.96c2,0,3.63-1.23,3.63-2.73v-1.82H91.14z"/>
					<path style="opacity:0.3;fill:#FFFFFF;" d="M91.14,253.07v1.82c0,1.5,1.63,2.73,3.63,2.73h28.96c2,0,3.63-1.23,3.63-2.73v-1.82
						H91.14z"/>
				</g>
			</g>
		</g>
	</g>
</g>
</svg>
